<svg width="368" height="122" viewBox="0 0 368 122" fill="none" xmlns="http://www.w3.org/2000/svg">
<path d="M76.0266 5.54545V23H72.8391L65.2454 12.0142H65.1175V23H61.4272V5.54545H64.6658L72.1999 16.5227H72.3533V5.54545H76.0266ZM84.9734 23.2557C83.6268 23.2557 82.4677 22.983 81.4961 22.4375C80.5302 21.8864 79.7859 21.108 79.2631 20.1023C78.7404 19.0909 78.479 17.8949 78.479 16.5142C78.479 15.1676 78.7404 13.9858 79.2631 12.9688C79.7859 11.9517 80.5217 11.1591 81.4705 10.5909C82.4251 10.0227 83.5444 9.73864 84.8285 9.73864C85.6921 9.73864 86.4961 9.87784 87.2404 10.1562C87.9904 10.429 88.6438 10.8409 89.2006 11.392C89.7631 11.9432 90.2006 12.6364 90.5131 13.4716C90.8256 14.3011 90.9819 15.2727 90.9819 16.3864V17.3835H79.9279V15.1335H87.5643C87.5643 14.6108 87.4506 14.1477 87.2234 13.7443C86.9961 13.3409 86.6808 13.0256 86.2773 12.7983C85.8796 12.5653 85.4165 12.4489 84.8881 12.4489C84.337 12.4489 83.8484 12.5767 83.4222 12.8324C83.0018 13.0824 82.6722 13.4205 82.4336 13.8466C82.195 14.267 82.0728 14.7358 82.0671 15.2528V17.392C82.0671 18.0398 82.1864 18.5994 82.4251 19.071C82.6694 19.5426 83.0131 19.9062 83.4563 20.1619C83.8995 20.4176 84.4251 20.5455 85.033 20.5455C85.4364 20.5455 85.8058 20.4886 86.141 20.375C86.4762 20.2614 86.7631 20.0909 87.0018 19.8636C87.2404 19.6364 87.4222 19.358 87.5472 19.0284L90.9052 19.25C90.7347 20.0568 90.3853 20.7614 89.8569 21.3636C89.3342 21.9602 88.658 22.4261 87.8285 22.7614C87.0046 23.0909 86.0529 23.2557 84.9734 23.2557ZM96.9819 15.4318V23H93.3512V9.90909H96.8114V12.2188H96.9648C97.2546 11.4574 97.7404 10.8551 98.4222 10.4119C99.104 9.96307 99.9308 9.73864 100.902 9.73864C101.811 9.73864 102.604 9.9375 103.28 10.3352C103.956 10.733 104.482 11.3011 104.857 12.0398C105.232 12.7727 105.419 13.6477 105.419 14.6648V23H101.789V15.3125C101.794 14.5114 101.59 13.8864 101.175 13.4375C100.76 12.983 100.189 12.7557 99.462 12.7557C98.9734 12.7557 98.5415 12.8608 98.1665 13.071C97.7972 13.2812 97.5075 13.5881 97.2972 13.9915C97.0927 14.3892 96.9876 14.8693 96.9819 15.4318ZM111.912 15.4318V23H108.281V5.54545H111.809V12.2188H111.963C112.258 11.446 112.735 10.8409 113.395 10.4034C114.054 9.96023 114.88 9.73864 115.875 9.73864C116.784 9.73864 117.576 9.9375 118.252 10.3352C118.934 10.7273 119.463 11.2926 119.838 12.0312C120.218 12.7642 120.406 13.642 120.4 14.6648V23H116.77V15.3125C116.775 14.5057 116.571 13.8778 116.156 13.429C115.747 12.9801 115.173 12.7557 114.434 12.7557C113.94 12.7557 113.502 12.8608 113.122 13.071C112.747 13.2812 112.451 13.5881 112.235 13.9915C112.025 14.3892 111.917 14.8693 111.912 15.4318ZM131.652 17.4261V9.90909H135.283V23H131.797V20.6222H131.661C131.365 21.3892 130.874 22.0057 130.186 22.4716C129.505 22.9375 128.672 23.1705 127.689 23.1705C126.814 23.1705 126.044 22.9716 125.38 22.5739C124.715 22.1761 124.195 21.6108 123.82 20.8778C123.451 20.1449 123.263 19.267 123.257 18.2443V9.90909H126.888V17.5966C126.894 18.3693 127.101 18.9801 127.51 19.429C127.919 19.8778 128.468 20.1023 129.155 20.1023C129.593 20.1023 130.002 20.0028 130.382 19.804C130.763 19.5994 131.07 19.2983 131.303 18.9006C131.542 18.5028 131.658 18.0114 131.652 17.4261ZM138.187 23V9.90909H141.647V12.2188H141.801C142.074 11.4517 142.528 10.8466 143.164 10.4034C143.801 9.96023 144.562 9.73864 145.449 9.73864C146.346 9.73864 147.11 9.96307 147.741 10.4119C148.372 10.8551 148.792 11.4574 149.002 12.2188H149.139C149.406 11.4688 149.889 10.8693 150.588 10.4205C151.292 9.96591 152.125 9.73864 153.085 9.73864C154.306 9.73864 155.298 10.1278 156.059 10.9062C156.826 11.679 157.21 12.7756 157.21 14.196V23H153.588V14.9119C153.588 14.1847 153.395 13.6392 153.008 13.2756C152.622 12.9119 152.139 12.7301 151.559 12.7301C150.9 12.7301 150.386 12.9403 150.017 13.3608C149.647 13.7756 149.463 14.3239 149.463 15.0057V23H145.943V14.8352C145.943 14.1932 145.758 13.6818 145.389 13.3011C145.025 12.9205 144.545 12.7301 143.949 12.7301C143.545 12.7301 143.181 12.8324 142.858 13.0369C142.539 13.2358 142.287 13.517 142.099 13.8807C141.912 14.2386 141.818 14.6591 141.818 15.142V23H138.187ZM163.811 23.2472C162.975 23.2472 162.231 23.1023 161.578 22.8125C160.924 22.517 160.407 22.0824 160.027 21.5085C159.652 20.929 159.464 20.2074 159.464 19.3438C159.464 18.6165 159.598 18.0057 159.865 17.5114C160.132 17.017 160.495 16.6193 160.956 16.3182C161.416 16.017 161.939 15.7898 162.524 15.6364C163.115 15.483 163.734 15.375 164.382 15.3125C165.143 15.233 165.757 15.1591 166.223 15.0909C166.689 15.017 167.027 14.9091 167.237 14.767C167.447 14.625 167.552 14.4148 167.552 14.1364V14.0852C167.552 13.5455 167.382 13.1278 167.041 12.8324C166.706 12.5369 166.228 12.3892 165.609 12.3892C164.956 12.3892 164.436 12.5341 164.049 12.8239C163.663 13.108 163.407 13.4659 163.282 13.8977L159.924 13.625C160.095 12.8295 160.43 12.142 160.93 11.5625C161.43 10.9773 162.075 10.5284 162.865 10.2159C163.66 9.89773 164.581 9.73864 165.626 9.73864C166.353 9.73864 167.049 9.82386 167.714 9.99432C168.385 10.1648 168.978 10.429 169.495 10.7869C170.018 11.1449 170.43 11.6051 170.731 12.1676C171.032 12.7244 171.183 13.392 171.183 14.1705V23H167.74V21.1847H167.637C167.427 21.5938 167.146 21.9545 166.794 22.267C166.441 22.5739 166.018 22.8153 165.524 22.9915C165.029 23.1619 164.458 23.2472 163.811 23.2472ZM164.85 20.7415C165.385 20.7415 165.856 20.6364 166.265 20.4261C166.674 20.2102 166.995 19.9205 167.228 19.5568C167.461 19.1932 167.578 18.7812 167.578 18.321V16.9318C167.464 17.0057 167.308 17.0739 167.109 17.1364C166.916 17.1932 166.697 17.2472 166.453 17.2983C166.208 17.3437 165.964 17.3864 165.72 17.4261C165.475 17.4602 165.254 17.4915 165.055 17.5199C164.629 17.5824 164.257 17.6818 163.939 17.8182C163.62 17.9545 163.373 18.1392 163.197 18.3722C163.021 18.5994 162.933 18.8835 162.933 19.2244C162.933 19.7188 163.112 20.0966 163.47 20.358C163.833 20.6136 164.294 20.7415 164.85 20.7415ZM179.554 23V9.90909H183.015V12.2188H183.168C183.441 11.4517 183.895 10.8466 184.532 10.4034C185.168 9.96023 185.929 9.73864 186.816 9.73864C187.713 9.73864 188.478 9.96307 189.108 10.4119C189.739 10.8551 190.159 11.4574 190.37 12.2188H190.506C190.773 11.4688 191.256 10.8693 191.955 10.4205C192.659 9.96591 193.492 9.73864 194.452 9.73864C195.674 9.73864 196.665 10.1278 197.426 10.9062C198.194 11.679 198.577 12.7756 198.577 14.196V23H194.955V14.9119C194.955 14.1847 194.762 13.6392 194.375 13.2756C193.989 12.9119 193.506 12.7301 192.926 12.7301C192.267 12.7301 191.753 12.9403 191.384 13.3608C191.015 13.7756 190.83 14.3239 190.83 15.0057V23H187.31V14.8352C187.31 14.1932 187.125 13.6818 186.756 13.3011C186.392 12.9205 185.912 12.7301 185.316 12.7301C184.912 12.7301 184.549 12.8324 184.225 13.0369C183.907 13.2358 183.654 13.517 183.466 13.8807C183.279 14.2386 183.185 14.6591 183.185 15.142V23H179.554ZM207.411 23.2557C206.064 23.2557 204.905 22.983 203.934 22.4375C202.968 21.8864 202.223 21.108 201.701 20.1023C201.178 19.0909 200.917 17.8949 200.917 16.5142C200.917 15.1676 201.178 13.9858 201.701 12.9688C202.223 11.9517 202.959 11.1591 203.908 10.5909C204.863 10.0227 205.982 9.73864 207.266 9.73864C208.13 9.73864 208.934 9.87784 209.678 10.1562C210.428 10.429 211.081 10.8409 211.638 11.392C212.201 11.9432 212.638 12.6364 212.951 13.4716C213.263 14.3011 213.419 15.2727 213.419 16.3864V17.3835H202.365V15.1335H210.002C210.002 14.6108 209.888 14.1477 209.661 13.7443C209.434 13.3409 209.118 13.0256 208.715 12.7983C208.317 12.5653 207.854 12.4489 207.326 12.4489C206.775 12.4489 206.286 12.5767 205.86 12.8324C205.439 13.0824 205.11 13.4205 204.871 13.8466C204.632 14.267 204.51 14.7358 204.505 15.2528V17.392C204.505 18.0398 204.624 18.5994 204.863 19.071C205.107 19.5426 205.451 19.9062 205.894 20.1619C206.337 20.4176 206.863 20.5455 207.471 20.5455C207.874 20.5455 208.243 20.4886 208.578 20.375C208.914 20.2614 209.201 20.0909 209.439 19.8636C209.678 19.6364 209.86 19.358 209.985 19.0284L213.343 19.25C213.172 20.0568 212.823 20.7614 212.294 21.3636C211.772 21.9602 211.096 22.4261 210.266 22.7614C209.442 23.0909 208.49 23.2557 207.411 23.2557ZM219.419 15.4318V23H215.789V9.90909H219.249V12.2188H219.402C219.692 11.4574 220.178 10.8551 220.86 10.4119C221.542 9.96307 222.368 9.73864 223.34 9.73864C224.249 9.73864 225.042 9.9375 225.718 10.3352C226.394 10.733 226.919 11.3011 227.294 12.0398C227.669 12.7727 227.857 13.6477 227.857 14.6648V23H224.226V15.3125C224.232 14.5114 224.027 13.8864 223.613 13.4375C223.198 12.983 222.627 12.7557 221.9 12.7557C221.411 12.7557 220.979 12.8608 220.604 13.071C220.235 13.2812 219.945 13.5881 219.735 13.9915C219.53 14.3892 219.425 14.8693 219.419 15.4318ZM241.61 13.642L238.287 13.8466C238.23 13.5625 238.108 13.3068 237.92 13.0795C237.733 12.8466 237.485 12.6619 237.179 12.5256C236.877 12.3835 236.517 12.3125 236.096 12.3125C235.534 12.3125 235.059 12.4318 234.673 12.6705C234.287 12.9034 234.093 13.2159 234.093 13.608C234.093 13.9205 234.218 14.1847 234.468 14.4006C234.718 14.6165 235.147 14.7898 235.755 14.9205L238.125 15.3977C239.397 15.6591 240.346 16.0795 240.971 16.6591C241.596 17.2386 241.909 18 241.909 18.9432C241.909 19.8011 241.656 20.554 241.15 21.2017C240.65 21.8494 239.963 22.3551 239.088 22.7188C238.218 23.0767 237.216 23.2557 236.079 23.2557C234.346 23.2557 232.966 22.8949 231.937 22.1733C230.914 21.446 230.315 20.4574 230.139 19.2074L233.71 19.0199C233.818 19.5483 234.079 19.9517 234.494 20.2301C234.909 20.5028 235.44 20.6392 236.088 20.6392C236.724 20.6392 237.235 20.517 237.622 20.2727C238.014 20.0227 238.213 19.7017 238.218 19.3097C238.213 18.9801 238.074 18.7102 237.801 18.5C237.528 18.2841 237.108 18.1193 236.539 18.0057L234.272 17.554C232.994 17.2983 232.042 16.8551 231.417 16.2244C230.798 15.5937 230.488 14.7898 230.488 13.8125C230.488 12.9716 230.716 12.2472 231.17 11.6392C231.63 11.0312 232.275 10.5625 233.105 10.233C233.94 9.90341 234.917 9.73864 236.037 9.73864C237.69 9.73864 238.991 10.0881 239.94 10.7869C240.895 11.4858 241.451 12.4375 241.61 13.642ZM247.928 23.2472C247.093 23.2472 246.348 23.1023 245.695 22.8125C245.042 22.517 244.525 22.0824 244.144 21.5085C243.769 20.929 243.581 20.2074 243.581 19.3438C243.581 18.6165 243.715 18.0057 243.982 17.5114C244.249 17.017 244.613 16.6193 245.073 16.3182C245.533 16.017 246.056 15.7898 246.641 15.6364C247.232 15.483 247.851 15.375 248.499 15.3125C249.26 15.233 249.874 15.1591 250.34 15.0909C250.806 15.017 251.144 14.9091 251.354 14.767C251.564 14.625 251.669 14.4148 251.669 14.1364V14.0852C251.669 13.5455 251.499 13.1278 251.158 12.8324C250.823 12.5369 250.346 12.3892 249.726 12.3892C249.073 12.3892 248.553 12.5341 248.167 12.8239C247.78 13.108 247.525 13.4659 247.4 13.8977L244.042 13.625C244.212 12.8295 244.547 12.142 245.047 11.5625C245.547 10.9773 246.192 10.5284 246.982 10.2159C247.777 9.89773 248.698 9.73864 249.743 9.73864C250.471 9.73864 251.167 9.82386 251.831 9.99432C252.502 10.1648 253.096 10.429 253.613 10.7869C254.135 11.1449 254.547 11.6051 254.848 12.1676C255.15 12.7244 255.3 13.392 255.3 14.1705V23H251.857V21.1847H251.755C251.544 21.5938 251.263 21.9545 250.911 22.267C250.559 22.5739 250.135 22.8153 249.641 22.9915C249.147 23.1619 248.576 23.2472 247.928 23.2472ZM248.968 20.7415C249.502 20.7415 249.973 20.6364 250.382 20.4261C250.792 20.2102 251.113 19.9205 251.346 19.5568C251.578 19.1932 251.695 18.7812 251.695 18.321V16.9318C251.581 17.0057 251.425 17.0739 251.226 17.1364C251.033 17.1932 250.814 17.2472 250.57 17.2983C250.326 17.3437 250.081 17.3864 249.837 17.4261C249.593 17.4602 249.371 17.4915 249.172 17.5199C248.746 17.5824 248.374 17.6818 248.056 17.8182C247.738 17.9545 247.49 18.1392 247.314 18.3722C247.138 18.5994 247.05 18.8835 247.05 19.2244C247.05 19.7188 247.229 20.0966 247.587 20.358C247.951 20.6136 248.411 20.7415 248.968 20.7415ZM264.015 28.1818C262.838 28.1818 261.83 28.0199 260.989 27.696C260.154 27.3778 259.489 26.9432 258.995 26.392C258.5 25.8409 258.179 25.2216 258.032 24.5341L261.39 24.0824C261.492 24.3438 261.654 24.5881 261.875 24.8153C262.097 25.0426 262.39 25.2244 262.753 25.3608C263.123 25.5028 263.571 25.5739 264.1 25.5739C264.89 25.5739 265.54 25.3807 266.051 24.9943C266.569 24.6136 266.827 23.9744 266.827 23.0767V20.6818H266.674C266.515 21.0455 266.276 21.3892 265.958 21.7131C265.64 22.0369 265.23 22.3011 264.73 22.5057C264.23 22.7102 263.634 22.8125 262.941 22.8125C261.958 22.8125 261.063 22.5852 260.256 22.1307C259.455 21.6705 258.816 20.9687 258.338 20.0256C257.867 19.0767 257.631 17.8778 257.631 16.429C257.631 14.946 257.873 13.7074 258.355 12.7131C258.838 11.7187 259.48 10.9744 260.282 10.4801C261.088 9.9858 261.972 9.73864 262.932 9.73864C263.665 9.73864 264.279 9.86364 264.773 10.1136C265.267 10.358 265.665 10.6648 265.966 11.0341C266.273 11.3977 266.509 11.7557 266.674 12.108H266.81V9.90909H270.415V23.1278C270.415 24.2415 270.142 25.1733 269.597 25.9233C269.051 26.6733 268.296 27.2358 267.33 27.6108C266.37 27.9915 265.265 28.1818 264.015 28.1818ZM264.091 20.0852C264.676 20.0852 265.171 19.9403 265.574 19.6506C265.983 19.3551 266.296 18.9347 266.512 18.3892C266.733 17.8381 266.844 17.179 266.844 16.4119C266.844 15.6449 266.736 14.9801 266.52 14.4176C266.304 13.8494 265.992 13.4091 265.583 13.0966C265.174 12.7841 264.676 12.6278 264.091 12.6278C263.495 12.6278 262.992 12.7898 262.583 13.1136C262.174 13.4318 261.864 13.875 261.654 14.4432C261.444 15.0114 261.338 15.6676 261.338 16.4119C261.338 17.1676 261.444 17.821 261.654 18.3722C261.87 18.9176 262.179 19.3409 262.583 19.642C262.992 19.9375 263.495 20.0852 264.091 20.0852ZM279.27 23.2557C277.924 23.2557 276.765 22.983 275.793 22.4375C274.827 21.8864 274.083 21.108 273.56 20.1023C273.037 19.0909 272.776 17.8949 272.776 16.5142C272.776 15.1676 273.037 13.9858 273.56 12.9688C274.083 11.9517 274.819 11.1591 275.767 10.5909C276.722 10.0227 277.841 9.73864 279.125 9.73864C279.989 9.73864 280.793 9.87784 281.537 10.1562C282.287 10.429 282.941 10.8409 283.498 11.392C284.06 11.9432 284.498 12.6364 284.81 13.4716C285.123 14.3011 285.279 15.2727 285.279 16.3864V17.3835H274.225V15.1335H281.861C281.861 14.6108 281.748 14.1477 281.52 13.7443C281.293 13.3409 280.978 13.0256 280.574 12.7983C280.176 12.5653 279.713 12.4489 279.185 12.4489C278.634 12.4489 278.145 12.5767 277.719 12.8324C277.299 13.0824 276.969 13.4205 276.73 13.8466C276.492 14.267 276.37 14.7358 276.364 15.2528V17.392C276.364 18.0398 276.483 18.5994 276.722 19.071C276.966 19.5426 277.31 19.9062 277.753 20.1619C278.196 20.4176 278.722 20.5455 279.33 20.5455C279.733 20.5455 280.103 20.4886 280.438 20.375C280.773 20.2614 281.06 20.0909 281.299 19.8636C281.537 19.6364 281.719 19.358 281.844 19.0284L285.202 19.25C285.032 20.0568 284.682 20.7614 284.154 21.3636C283.631 21.9602 282.955 22.4261 282.125 22.7614C281.301 23.0909 280.35 23.2557 279.27 23.2557ZM287.648 23V9.90909H291.108V12.2188H291.262C291.534 11.4517 291.989 10.8466 292.625 10.4034C293.262 9.96023 294.023 9.73864 294.909 9.73864C295.807 9.73864 296.571 9.96307 297.202 10.4119C297.833 10.8551 298.253 11.4574 298.463 12.2188H298.6C298.867 11.4688 299.35 10.8693 300.049 10.4205C300.753 9.96591 301.586 9.73864 302.546 9.73864C303.767 9.73864 304.759 10.1278 305.52 10.9062C306.287 11.679 306.671 12.7756 306.671 14.196V23H303.049V14.9119C303.049 14.1847 302.855 13.6392 302.469 13.2756C302.083 12.9119 301.6 12.7301 301.02 12.7301C300.361 12.7301 299.847 12.9403 299.478 13.3608C299.108 13.7756 298.924 14.3239 298.924 15.0057V23H295.404V14.8352C295.404 14.1932 295.219 13.6818 294.85 13.3011C294.486 12.9205 294.006 12.7301 293.409 12.7301C293.006 12.7301 292.642 12.8324 292.319 13.0369C292 13.2358 291.748 13.517 291.56 13.8807C291.373 14.2386 291.279 14.6591 291.279 15.142V23H287.648ZM123.973 52.2557C122.627 52.2557 121.468 51.983 120.496 51.4375C119.53 50.8864 118.786 50.108 118.263 49.1023C117.74 48.0909 117.479 46.8949 117.479 45.5142C117.479 44.1676 117.74 42.9858 118.263 41.9688C118.786 40.9517 119.522 40.1591 120.471 39.5909C121.425 39.0227 122.544 38.7386 123.828 38.7386C124.692 38.7386 125.496 38.8778 126.24 39.1562C126.99 39.429 127.644 39.8409 128.201 40.392C128.763 40.9432 129.201 41.6364 129.513 42.4716C129.826 43.3011 129.982 44.2727 129.982 45.3864V46.3835H118.928V44.1335H126.564C126.564 43.6108 126.451 43.1477 126.223 42.7443C125.996 42.3409 125.681 42.0256 125.277 41.7983C124.88 41.5653 124.417 41.4489 123.888 41.4489C123.337 41.4489 122.848 41.5767 122.422 41.8324C122.002 42.0824 121.672 42.4205 121.434 42.8466C121.195 43.267 121.073 43.7358 121.067 44.2528V46.392C121.067 47.0398 121.186 47.5994 121.425 48.071C121.669 48.5426 122.013 48.9062 122.456 49.1619C122.9 49.4176 123.425 49.5455 124.033 49.5455C124.436 49.5455 124.806 49.4886 125.141 49.375C125.476 49.2614 125.763 49.0909 126.002 48.8636C126.24 48.6364 126.422 48.358 126.547 48.0284L129.905 48.25C129.735 49.0568 129.385 49.7614 128.857 50.3636C128.334 50.9602 127.658 51.4261 126.828 51.7614C126.005 52.0909 125.053 52.2557 123.973 52.2557ZM135.982 44.4318V52H132.351V38.9091H135.811V41.2188H135.965C136.255 40.4574 136.74 39.8551 137.422 39.4119C138.104 38.9631 138.931 38.7386 139.902 38.7386C140.811 38.7386 141.604 38.9375 142.28 39.3352C142.956 39.733 143.482 40.3011 143.857 41.0398C144.232 41.7727 144.419 42.6477 144.419 43.6648V52H140.789V44.3125C140.794 43.5114 140.59 42.8864 140.175 42.4375C139.76 41.983 139.189 41.7557 138.462 41.7557C137.973 41.7557 137.542 41.8608 137.167 42.071C136.797 42.2812 136.507 42.5881 136.297 42.9915C136.093 43.3892 135.988 43.8693 135.982 44.4318ZM153.196 52.2557C151.855 52.2557 150.701 51.9716 149.735 51.4034C148.775 50.8295 148.037 50.0341 147.52 49.017C147.008 48 146.752 46.8295 146.752 45.5057C146.752 44.1648 147.011 42.9886 147.528 41.9773C148.051 40.9602 148.792 40.1676 149.752 39.5994C150.713 39.0256 151.855 38.7386 153.179 38.7386C154.321 38.7386 155.321 38.946 156.179 39.3608C157.037 39.7756 157.716 40.358 158.216 41.108C158.716 41.858 158.991 42.7386 159.042 43.75H155.616C155.52 43.0966 155.264 42.571 154.849 42.1733C154.44 41.7699 153.903 41.5682 153.238 41.5682C152.676 41.5682 152.184 41.7216 151.764 42.0284C151.349 42.3295 151.025 42.7699 150.792 43.3494C150.559 43.929 150.443 44.6307 150.443 45.4545C150.443 46.2898 150.556 47 150.784 47.5852C151.017 48.1705 151.343 48.6165 151.764 48.9233C152.184 49.2301 152.676 49.3835 153.238 49.3835C153.653 49.3835 154.025 49.2983 154.355 49.1278C154.69 48.9574 154.966 48.7102 155.181 48.3864C155.403 48.0568 155.548 47.6619 155.616 47.2017H159.042C158.985 48.2017 158.713 49.0824 158.224 49.8438C157.741 50.5994 157.074 51.1903 156.221 51.6165C155.369 52.0426 154.36 52.2557 153.196 52.2557ZM167.282 52.2557C165.958 52.2557 164.813 51.9744 163.847 51.4119C162.887 50.8437 162.145 50.054 161.623 49.0426C161.1 48.0256 160.838 46.8466 160.838 45.5057C160.838 44.1534 161.1 42.9716 161.623 41.9602C162.145 40.9432 162.887 40.1534 163.847 39.5909C164.813 39.0227 165.958 38.7386 167.282 38.7386C168.605 38.7386 169.748 39.0227 170.708 39.5909C171.674 40.1534 172.418 40.9432 172.941 41.9602C173.463 42.9716 173.725 44.1534 173.725 45.5057C173.725 46.8466 173.463 48.0256 172.941 49.0426C172.418 50.054 171.674 50.8437 170.708 51.4119C169.748 51.9744 168.605 52.2557 167.282 52.2557ZM167.299 49.4432C167.901 49.4432 168.404 49.2727 168.807 48.9318C169.211 48.5852 169.515 48.1136 169.719 47.517C169.929 46.9205 170.034 46.2415 170.034 45.4801C170.034 44.7188 169.929 44.0398 169.719 43.4432C169.515 42.8466 169.211 42.375 168.807 42.0284C168.404 41.6818 167.901 41.5085 167.299 41.5085C166.691 41.5085 166.179 41.6818 165.765 42.0284C165.355 42.375 165.046 42.8466 164.836 43.4432C164.631 44.0398 164.529 44.7188 164.529 45.4801C164.529 46.2415 164.631 46.9205 164.836 47.517C165.046 48.1136 165.355 48.5852 165.765 48.9318C166.179 49.2727 166.691 49.4432 167.299 49.4432ZM179.716 44.4318V52H176.086V38.9091H179.546V41.2188H179.699C179.989 40.4574 180.475 39.8551 181.157 39.4119C181.838 38.9631 182.665 38.7386 183.637 38.7386C184.546 38.7386 185.338 38.9375 186.015 39.3352C186.691 39.733 187.216 40.3011 187.591 41.0398C187.966 41.7727 188.154 42.6477 188.154 43.6648V52H184.523V44.3125C184.529 43.5114 184.324 42.8864 183.909 42.4375C183.495 41.983 182.924 41.7557 182.196 41.7557C181.708 41.7557 181.276 41.8608 180.901 42.071C180.532 42.2812 180.242 42.5881 180.032 42.9915C179.827 43.3892 179.722 43.8693 179.716 44.4318ZM197.978 38.9091V41.6364H190.095V38.9091H197.978ZM191.885 35.7727H195.515V47.9773C195.515 48.3125 195.566 48.5739 195.669 48.7614C195.771 48.9432 195.913 49.071 196.095 49.1449C196.282 49.2187 196.498 49.2557 196.743 49.2557C196.913 49.2557 197.083 49.2415 197.254 49.2131C197.424 49.179 197.555 49.1534 197.646 49.1364L198.217 51.8381C198.035 51.8949 197.779 51.9602 197.45 52.0341C197.12 52.1136 196.72 52.1619 196.248 52.179C195.373 52.2131 194.606 52.0966 193.947 51.8295C193.294 51.5625 192.785 51.1477 192.422 50.5852C192.058 50.0227 191.879 49.3125 191.885 48.4545V35.7727ZM200.343 52V38.9091H203.863V41.1932H204C204.238 40.3807 204.639 39.767 205.201 39.3523C205.764 38.9318 206.412 38.7216 207.145 38.7216C207.326 38.7216 207.522 38.733 207.733 38.7557C207.943 38.7784 208.127 38.8097 208.287 38.8494V42.071C208.116 42.0199 207.88 41.9744 207.579 41.9347C207.278 41.8949 207.002 41.875 206.752 41.875C206.218 41.875 205.741 41.9915 205.321 42.2244C204.906 42.4517 204.576 42.7699 204.332 43.179C204.093 43.5881 203.974 44.0597 203.974 44.5938V52H200.343ZM213.522 52.2472C212.686 52.2472 211.942 52.1023 211.289 51.8125C210.635 51.517 210.118 51.0824 209.738 50.5085C209.363 49.929 209.175 49.2074 209.175 48.3438C209.175 47.6165 209.309 47.0057 209.576 46.5114C209.843 46.017 210.206 45.6193 210.667 45.3182C211.127 45.017 211.65 44.7898 212.235 44.6364C212.826 44.483 213.445 44.375 214.093 44.3125C214.854 44.233 215.468 44.1591 215.934 44.0909C216.4 44.017 216.738 43.9091 216.948 43.767C217.158 43.625 217.263 43.4148 217.263 43.1364V43.0852C217.263 42.5455 217.093 42.1278 216.752 41.8324C216.417 41.5369 215.939 41.3892 215.32 41.3892C214.667 41.3892 214.147 41.5341 213.76 41.8239C213.374 42.108 213.118 42.4659 212.993 42.8977L209.635 42.625C209.806 41.8295 210.141 41.142 210.641 40.5625C211.141 39.9773 211.786 39.5284 212.576 39.2159C213.371 38.8977 214.292 38.7386 215.337 38.7386C216.064 38.7386 216.76 38.8239 217.425 38.9943C218.096 39.1648 218.689 39.429 219.206 39.7869C219.729 40.1449 220.141 40.6051 220.442 41.1676C220.743 41.7244 220.894 42.392 220.894 43.1705V52H217.451V50.1847H217.348C217.138 50.5938 216.857 50.9545 216.505 51.267C216.152 51.5739 215.729 51.8153 215.235 51.9915C214.74 52.1619 214.169 52.2472 213.522 52.2472ZM214.561 49.7415C215.096 49.7415 215.567 49.6364 215.976 49.4261C216.385 49.2102 216.706 48.9205 216.939 48.5568C217.172 48.1932 217.289 47.7812 217.289 47.321V45.9318C217.175 46.0057 217.019 46.0739 216.82 46.1364C216.627 46.1932 216.408 46.2472 216.164 46.2983C215.919 46.3437 215.675 46.3864 215.431 46.4261C215.186 46.4602 214.965 46.4915 214.766 46.5199C214.34 46.5824 213.968 46.6818 213.65 46.8182C213.331 46.9545 213.084 47.1392 212.908 47.3722C212.732 47.5994 212.644 47.8835 212.644 48.2244C212.644 48.7188 212.823 49.0966 213.181 49.358C213.544 49.6136 214.005 49.7415 214.561 49.7415ZM228.534 52.2131C227.54 52.2131 226.64 51.9574 225.833 51.446C225.032 50.929 224.395 50.1705 223.924 49.1705C223.458 48.1648 223.225 46.9318 223.225 45.4716C223.225 43.9716 223.466 42.7244 223.949 41.7301C224.432 40.7301 225.074 39.983 225.875 39.4886C226.682 38.9886 227.566 38.7386 228.526 38.7386C229.259 38.7386 229.87 38.8636 230.358 39.1136C230.853 39.358 231.25 39.6648 231.551 40.0341C231.858 40.3977 232.091 40.7557 232.25 41.108H232.361V34.5455H235.983V52H232.404V49.9034H232.25C232.08 50.267 231.838 50.6278 231.526 50.9858C231.219 51.3381 230.819 51.6307 230.324 51.8636C229.836 52.0966 229.239 52.2131 228.534 52.2131ZM229.685 49.3239C230.27 49.3239 230.765 49.1648 231.168 48.8466C231.577 48.5227 231.89 48.071 232.105 47.4915C232.327 46.9119 232.438 46.233 232.438 45.4545C232.438 44.6761 232.33 44 232.114 43.4261C231.898 42.8523 231.586 42.4091 231.176 42.0966C230.767 41.7841 230.27 41.6278 229.685 41.6278C229.088 41.6278 228.586 41.7898 228.176 42.1136C227.767 42.4375 227.458 42.8864 227.248 43.4602C227.037 44.0341 226.932 44.6989 226.932 45.4545C226.932 46.2159 227.037 46.8892 227.248 47.4744C227.463 48.054 227.773 48.5085 228.176 48.8381C228.586 49.1619 229.088 49.3239 229.685 49.3239ZM242.701 52.2472C241.866 52.2472 241.122 52.1023 240.468 51.8125C239.815 51.517 239.298 51.0824 238.917 50.5085C238.542 49.929 238.355 49.2074 238.355 48.3438C238.355 47.6165 238.488 47.0057 238.755 46.5114C239.022 46.017 239.386 45.6193 239.846 45.3182C240.306 45.017 240.829 44.7898 241.414 44.6364C242.005 44.483 242.625 44.375 243.272 44.3125C244.034 44.233 244.647 44.1591 245.113 44.0909C245.579 44.017 245.917 43.9091 246.127 43.767C246.338 43.625 246.443 43.4148 246.443 43.1364V43.0852C246.443 42.5455 246.272 42.1278 245.931 41.8324C245.596 41.5369 245.119 41.3892 244.5 41.3892C243.846 41.3892 243.326 41.5341 242.94 41.8239C242.554 42.108 242.298 42.4659 242.173 42.8977L238.815 42.625C238.985 41.8295 239.321 41.142 239.821 40.5625C240.321 39.9773 240.966 39.5284 241.755 39.2159C242.551 38.8977 243.471 38.7386 244.517 38.7386C245.244 38.7386 245.94 38.8239 246.605 38.9943C247.275 39.1648 247.869 39.429 248.386 39.7869C248.909 40.1449 249.321 40.6051 249.622 41.1676C249.923 41.7244 250.074 42.392 250.074 43.1705V52H246.63V50.1847H246.528C246.318 50.5938 246.037 50.9545 245.684 51.267C245.332 51.5739 244.909 51.8153 244.414 51.9915C243.92 52.1619 243.349 52.2472 242.701 52.2472ZM243.741 49.7415C244.275 49.7415 244.747 49.6364 245.156 49.4261C245.565 49.2102 245.886 48.9205 246.119 48.5568C246.352 48.1932 246.468 47.7812 246.468 47.321V45.9318C246.355 46.0057 246.199 46.0739 246 46.1364C245.806 46.1932 245.588 46.2472 245.343 46.2983C245.099 46.3437 244.855 46.3864 244.61 46.4261C244.366 46.4602 244.145 46.4915 243.946 46.5199C243.52 46.5824 243.147 46.6818 242.829 46.8182C242.511 46.9545 242.264 47.1392 242.088 47.3722C241.912 47.5994 241.824 47.8835 241.824 48.2244C241.824 48.7188 242.002 49.0966 242.36 49.358C242.724 49.6136 243.184 49.7415 243.741 49.7415Z" fill="#343A40"/>
<path d="M9.24219 92H5.65128V80.3636H9.40128C10.5301 80.3636 11.496 80.5966 12.299 81.0625C13.102 81.5246 13.7176 82.1894 14.1456 83.0568C14.5736 83.9205 14.7876 84.9545 14.7876 86.1591C14.7876 87.3712 14.5717 88.4148 14.1399 89.2898C13.7081 90.161 13.0793 90.8314 12.2536 91.3011C11.4278 91.767 10.424 92 9.24219 92ZM7.06037 90.75H9.15128C10.1134 90.75 10.9107 90.5644 11.5433 90.1932C12.1759 89.822 12.6475 89.2936 12.9581 88.608C13.2687 87.9223 13.424 87.1061 13.424 86.1591C13.424 85.2197 13.2706 84.411 12.9638 83.733C12.657 83.0511 12.1986 82.5284 11.5888 82.1648C10.9789 81.7973 10.2195 81.6136 9.31037 81.6136H7.06037V90.75ZM16.9695 92V83.2727H18.3104V92H16.9695ZM17.6513 81.8182C17.3899 81.8182 17.1645 81.7292 16.9751 81.5511C16.7895 81.3731 16.6967 81.1591 16.6967 80.9091C16.6967 80.6591 16.7895 80.4451 16.9751 80.267C17.1645 80.089 17.3899 80 17.6513 80C17.9126 80 18.1361 80.089 18.3217 80.267C18.5111 80.4451 18.6058 80.6591 18.6058 80.9091C18.6058 81.1591 18.5111 81.3731 18.3217 81.5511C18.1361 81.7292 17.9126 81.8182 17.6513 81.8182ZM24.2891 95.4545C23.6413 95.4545 23.0845 95.3712 22.6186 95.2045C22.1527 95.0417 21.7644 94.8258 21.4538 94.5568C21.147 94.2917 20.9027 94.0076 20.7209 93.7045L21.7891 92.9545C21.9103 93.1136 22.0637 93.2955 22.2493 93.5C22.4349 93.7083 22.6887 93.8883 23.0107 94.0398C23.3364 94.1951 23.7625 94.2727 24.2891 94.2727C24.9936 94.2727 25.575 94.1023 26.0334 93.7614C26.4917 93.4205 26.7209 92.8864 26.7209 92.1591V90.3864H26.6072C26.5088 90.5455 26.3686 90.7424 26.1868 90.9773C26.0088 91.2083 25.7512 91.4148 25.4141 91.5966C25.0807 91.7746 24.63 91.8636 24.0618 91.8636C23.3572 91.8636 22.7247 91.697 22.1641 91.3636C21.6072 91.0303 21.166 90.5455 20.8402 89.9091C20.5182 89.2727 20.3572 88.5 20.3572 87.5909C20.3572 86.697 20.5144 85.9186 20.8288 85.2557C21.1432 84.589 21.5807 84.0739 22.1413 83.7102C22.7019 83.3428 23.3497 83.1591 24.0845 83.1591C24.6527 83.1591 25.1035 83.2538 25.4368 83.4432C25.7739 83.6288 26.0315 83.8409 26.2095 84.0795C26.3913 84.3144 26.5315 84.5076 26.63 84.6591H26.7663V83.2727H28.0618V92.25C28.0618 93 27.8913 93.6098 27.5504 94.0795C27.2133 94.553 26.7588 94.8996 26.1868 95.1193C25.6186 95.3428 24.986 95.4545 24.2891 95.4545ZM24.2436 90.6591C24.7815 90.6591 25.236 90.536 25.6072 90.2898C25.9785 90.0436 26.2607 89.6894 26.4538 89.2273C26.647 88.7652 26.7436 88.2121 26.7436 87.5682C26.7436 86.9394 26.6489 86.3845 26.4595 85.9034C26.2701 85.4223 25.9898 85.0455 25.6186 84.7727C25.2474 84.5 24.7891 84.3636 24.2436 84.3636C23.6754 84.3636 23.2019 84.5076 22.8232 84.7955C22.4482 85.0833 22.166 85.4697 21.9766 85.9545C21.791 86.4394 21.6982 86.9773 21.6982 87.5682C21.6982 88.1742 21.7929 88.7102 21.9822 89.1761C22.1754 89.6383 22.4595 90.0019 22.8345 90.267C23.2133 90.5284 23.683 90.6591 24.2436 90.6591ZM30.5163 92V83.2727H31.8572V92H30.5163ZM31.1982 81.8182C30.9368 81.8182 30.7114 81.7292 30.522 81.5511C30.3364 81.3731 30.2436 81.1591 30.2436 80.9091C30.2436 80.6591 30.3364 80.4451 30.522 80.267C30.7114 80.089 30.9368 80 31.1982 80C31.4595 80 31.683 80.089 31.8686 80.267C32.058 80.4451 32.1527 80.6591 32.1527 80.9091C32.1527 81.1591 32.058 81.3731 31.8686 81.5511C31.683 81.7292 31.4595 81.8182 31.1982 81.8182ZM38.1087 83.2727V84.4091H33.5859V83.2727H38.1087ZM34.9041 81.1818H36.245V89.5C36.245 89.8788 36.3 90.1629 36.4098 90.3523C36.5234 90.5379 36.6674 90.6629 36.8416 90.7273C37.0196 90.7879 37.2071 90.8182 37.4041 90.8182C37.5518 90.8182 37.6731 90.8106 37.7678 90.7955C37.8625 90.7765 37.9382 90.7614 37.995 90.75L38.2678 91.9545C38.1768 91.9886 38.05 92.0227 37.8871 92.0568C37.7242 92.0947 37.5178 92.1136 37.2678 92.1136C36.889 92.1136 36.5178 92.0322 36.1541 91.8693C35.7943 91.7064 35.495 91.4583 35.2564 91.125C35.0215 90.7917 34.9041 90.3712 34.9041 89.8636V81.1818ZM43.6911 92.1818C42.8501 92.1818 42.1248 91.9962 41.5149 91.625C40.9089 91.25 40.4411 90.7273 40.1115 90.0568C39.7857 89.3826 39.6229 88.5985 39.6229 87.7045C39.6229 86.8106 39.7857 86.0227 40.1115 85.3409C40.4411 84.6553 40.8994 84.1212 41.4865 83.7386C42.0774 83.3523 42.7668 83.1591 43.5547 83.1591C44.0092 83.1591 44.4581 83.2348 44.9013 83.3864C45.3445 83.5379 45.7479 83.7841 46.1115 84.125C46.4751 84.4621 46.7649 84.9091 46.9808 85.4659C47.1967 86.0227 47.3047 86.7083 47.3047 87.5227V88.0909H40.5774V86.9318H45.9411C45.9411 86.4394 45.8426 86 45.6456 85.6136C45.4524 85.2273 45.1759 84.9223 44.8161 84.6989C44.46 84.4754 44.0395 84.3636 43.5547 84.3636C43.0206 84.3636 42.5585 84.4962 42.1683 84.7614C41.782 85.0227 41.4846 85.3636 41.2763 85.7841C41.0679 86.2045 40.9638 86.6553 40.9638 87.1364V87.9091C40.9638 88.5682 41.0774 89.1269 41.3047 89.5852C41.5357 90.0398 41.8558 90.3864 42.2649 90.625C42.674 90.8598 43.1494 90.9773 43.6911 90.9773C44.0433 90.9773 44.3615 90.928 44.6456 90.8295C44.9335 90.7273 45.1816 90.5758 45.3899 90.375C45.5982 90.1705 45.7592 89.9167 45.8729 89.6136L47.1683 89.9773C47.032 90.4167 46.8028 90.803 46.4808 91.1364C46.1589 91.4659 45.7611 91.7235 45.2876 91.9091C44.8142 92.0909 44.282 92.1818 43.6911 92.1818ZM59.3445 88.4318V83.2727H60.6854V92H59.3445V90.5227H59.2536C59.049 90.9659 58.7308 91.3428 58.299 91.6534C57.8672 91.9602 57.3217 92.1136 56.6626 92.1136C56.1172 92.1136 55.6323 91.9943 55.2081 91.7557C54.7839 91.5133 54.4505 91.1496 54.2081 90.6648C53.9657 90.1761 53.8445 89.5606 53.8445 88.8182V83.2727H55.1854V88.7273C55.1854 89.3636 55.3634 89.8712 55.7195 90.25C56.0793 90.6288 56.5376 90.8182 57.0945 90.8182C57.4278 90.8182 57.7668 90.733 58.1115 90.5625C58.46 90.392 58.7517 90.1307 58.9865 89.7784C59.2251 89.4261 59.3445 88.9773 59.3445 88.4318ZM63.1413 92V83.2727H64.4368V84.6364H64.5504C64.7322 84.1705 65.0258 83.8087 65.4311 83.5511C65.8364 83.2898 66.3232 83.1591 66.8913 83.1591C67.4671 83.1591 67.9463 83.2898 68.3288 83.5511C68.7152 83.8087 69.0163 84.1705 69.2322 84.6364H69.3232C69.5466 84.1856 69.8819 83.8277 70.3288 83.5625C70.7758 83.2936 71.3118 83.1591 71.9368 83.1591C72.7171 83.1591 73.3554 83.4034 73.8516 83.892C74.3478 84.3769 74.5959 85.1326 74.5959 86.1591V92H73.255V86.1591C73.255 85.5152 73.0788 85.0549 72.7266 84.7784C72.3743 84.5019 71.9595 84.3636 71.4822 84.3636C70.8686 84.3636 70.3932 84.5492 70.0561 84.9205C69.719 85.2879 69.5504 85.7538 69.5504 86.3182V92H68.1868V86.0227C68.1868 85.5265 68.0258 85.1269 67.7038 84.8239C67.3819 84.517 66.9671 84.3636 66.4595 84.3636C66.111 84.3636 65.7853 84.4564 65.4822 84.642C65.183 84.8277 64.9406 85.0852 64.755 85.4148C64.5732 85.7405 64.4822 86.1174 64.4822 86.5455V92H63.1413ZM85.343 83.2727V84.4091H80.8203V83.2727H85.343ZM82.1385 81.1818H83.4794V89.5C83.4794 89.8788 83.5343 90.1629 83.6442 90.3523C83.7578 90.5379 83.9018 90.6629 84.076 90.7273C84.254 90.7879 84.4415 90.8182 84.6385 90.8182C84.7862 90.8182 84.9074 90.8106 85.0021 90.7955C85.0968 90.7765 85.1726 90.7614 85.2294 90.75L85.5021 91.9545C85.4112 91.9886 85.2843 92.0227 85.1214 92.0568C84.9586 92.0947 84.7521 92.1136 84.5021 92.1136C84.1233 92.1136 83.7521 92.0322 83.3885 91.8693C83.0286 91.7064 82.7294 91.4583 82.4908 91.125C82.2559 90.7917 82.1385 90.3712 82.1385 89.8636V81.1818ZM90.9254 92.1818C90.0845 92.1818 89.3591 91.9962 88.7493 91.625C88.1432 91.25 87.6754 90.7273 87.3459 90.0568C87.0201 89.3826 86.8572 88.5985 86.8572 87.7045C86.8572 86.8106 87.0201 86.0227 87.3459 85.3409C87.6754 84.6553 88.1338 84.1212 88.7209 83.7386C89.3118 83.3523 90.0012 83.1591 90.7891 83.1591C91.2436 83.1591 91.6925 83.2348 92.1357 83.3864C92.5788 83.5379 92.9822 83.7841 93.3459 84.125C93.7095 84.4621 93.9993 84.9091 94.2152 85.4659C94.4311 86.0227 94.5391 86.7083 94.5391 87.5227V88.0909H87.8118V86.9318H93.1754C93.1754 86.4394 93.0769 86 92.88 85.6136C92.6868 85.2273 92.4103 84.9223 92.0504 84.6989C91.6944 84.4754 91.2739 84.3636 90.7891 84.3636C90.255 84.3636 89.7929 84.4962 89.4027 84.7614C89.0163 85.0227 88.719 85.3636 88.5107 85.7841C88.3023 86.2045 88.1982 86.6553 88.1982 87.1364V87.9091C88.1982 88.5682 88.3118 89.1269 88.5391 89.5852C88.7701 90.0398 89.0902 90.3864 89.4993 90.625C89.9084 90.8598 90.3838 90.9773 90.9254 90.9773C91.2777 90.9773 91.5959 90.928 91.88 90.8295C92.1679 90.7273 92.416 90.5758 92.6243 90.375C92.8326 90.1705 92.9936 89.9167 93.1072 89.6136L94.4027 89.9773C94.2663 90.4167 94.0372 90.803 93.7152 91.1364C93.3932 91.4659 92.9955 91.7235 92.522 91.9091C92.0485 92.0909 91.5163 92.1818 90.9254 92.1818ZM97.3445 83.2727L99.4354 86.8409L101.526 83.2727H103.072L100.254 87.6364L103.072 92H101.526L99.4354 88.6136L97.3445 92H95.799L98.5717 87.6364L95.799 83.2727H97.3445ZM108.781 83.2727V84.4091H104.258V83.2727H108.781ZM105.576 81.1818H106.917V89.5C106.917 89.8788 106.972 90.1629 107.082 90.3523C107.195 90.5379 107.339 90.6629 107.513 90.7273C107.692 90.7879 107.879 90.8182 108.076 90.8182C108.224 90.8182 108.345 90.8106 108.44 90.7955C108.534 90.7765 108.61 90.7614 108.667 90.75L108.94 91.9545C108.849 91.9886 108.722 92.0227 108.559 92.0568C108.396 92.0947 108.19 92.1136 107.94 92.1136C107.561 92.1136 107.19 92.0322 106.826 91.8693C106.466 91.7064 106.167 91.4583 105.928 91.125C105.693 90.7917 105.576 90.3712 105.576 89.8636V81.1818ZM114.249 92.1818C113.461 92.1818 112.77 91.9943 112.175 91.6193C111.585 91.2443 111.122 90.7197 110.789 90.0455C110.46 89.3712 110.295 88.5833 110.295 87.6818C110.295 86.7727 110.46 85.9792 110.789 85.3011C111.122 84.6231 111.585 84.0966 112.175 83.7216C112.77 83.3466 113.461 83.1591 114.249 83.1591C115.037 83.1591 115.727 83.3466 116.317 83.7216C116.912 84.0966 117.374 84.6231 117.704 85.3011C118.037 85.9792 118.204 86.7727 118.204 87.6818C118.204 88.5833 118.037 89.3712 117.704 90.0455C117.374 90.7197 116.912 91.2443 116.317 91.6193C115.727 91.9943 115.037 92.1818 114.249 92.1818ZM114.249 90.9773C114.848 90.9773 115.34 90.8239 115.727 90.517C116.113 90.2102 116.399 89.8068 116.585 89.3068C116.77 88.8068 116.863 88.2652 116.863 87.6818C116.863 87.0985 116.77 86.5549 116.585 86.0511C116.399 85.5473 116.113 85.1402 115.727 84.8295C115.34 84.5189 114.848 84.3636 114.249 84.3636C113.651 84.3636 113.158 84.5189 112.772 84.8295C112.386 85.1402 112.1 85.5473 111.914 86.0511C111.728 86.5549 111.636 87.0985 111.636 87.6818C111.636 88.2652 111.728 88.8068 111.914 89.3068C112.1 89.8068 112.386 90.2102 112.772 90.517C113.158 90.8239 113.651 90.9773 114.249 90.9773ZM130.705 95.2727V90.6591H130.592C130.493 90.8182 130.353 91.0189 130.171 91.2614C129.989 91.5 129.73 91.714 129.393 91.9034C129.056 92.089 128.607 92.1818 128.046 92.1818C127.319 92.1818 126.677 91.9981 126.12 91.6307C125.563 91.2595 125.128 90.7367 124.813 90.0625C124.499 89.3845 124.342 88.5833 124.342 87.6591C124.342 86.7424 124.499 85.947 124.813 85.2727C125.128 84.5985 125.565 84.0777 126.126 83.7102C126.686 83.3428 127.334 83.1591 128.069 83.1591C128.637 83.1591 129.086 83.2538 129.415 83.4432C129.749 83.6288 130.003 83.8409 130.177 84.0795C130.355 84.3144 130.493 84.5076 130.592 84.6591H130.751V83.2727H132.046V95.2727H130.705ZM128.228 90.9773C128.766 90.9773 129.22 90.8371 129.592 90.5568C129.963 90.2727 130.245 89.8807 130.438 89.3807C130.631 88.8769 130.728 88.2955 130.728 87.6364C130.728 86.9848 130.633 86.4148 130.444 85.9261C130.254 85.4337 129.974 85.0511 129.603 84.7784C129.232 84.5019 128.773 84.3636 128.228 84.3636C127.66 84.3636 127.186 84.5095 126.808 84.8011C126.433 85.089 126.15 85.4811 125.961 85.9773C125.775 86.4697 125.683 87.0227 125.683 87.6364C125.683 88.2576 125.777 88.822 125.967 89.3295C126.16 89.8333 126.444 90.2348 126.819 90.5341C127.198 90.8295 127.667 90.9773 128.228 90.9773ZM140.001 88.4318V83.2727H141.342V92H140.001V90.5227H139.91C139.705 90.9659 139.387 91.3428 138.955 91.6534C138.523 91.9602 137.978 92.1136 137.319 92.1136C136.773 92.1136 136.289 91.9943 135.864 91.7557C135.44 91.5133 135.107 91.1496 134.864 90.6648C134.622 90.1761 134.501 89.5606 134.501 88.8182V83.2727H135.842V88.7273C135.842 89.3636 136.02 89.8712 136.376 90.25C136.736 90.6288 137.194 90.8182 137.751 90.8182C138.084 90.8182 138.423 90.733 138.768 90.5625C139.116 90.392 139.408 90.1307 139.643 89.7784C139.881 89.4261 140.001 88.9773 140.001 88.4318ZM147.457 92.1818C146.616 92.1818 145.89 91.9962 145.281 91.625C144.674 91.25 144.207 90.7273 143.877 90.0568C143.551 89.3826 143.388 88.5985 143.388 87.7045C143.388 86.8106 143.551 86.0227 143.877 85.3409C144.207 84.6553 144.665 84.1212 145.252 83.7386C145.843 83.3523 146.532 83.1591 147.32 83.1591C147.775 83.1591 148.224 83.2348 148.667 83.3864C149.11 83.5379 149.513 83.7841 149.877 84.125C150.241 84.4621 150.531 84.9091 150.746 85.4659C150.962 86.0227 151.07 86.7083 151.07 87.5227V88.0909H144.343V86.9318H149.707C149.707 86.4394 149.608 86 149.411 85.6136C149.218 85.2273 148.942 84.9223 148.582 84.6989C148.226 84.4754 147.805 84.3636 147.32 84.3636C146.786 84.3636 146.324 84.4962 145.934 84.7614C145.548 85.0227 145.25 85.3636 145.042 85.7841C144.834 86.2045 144.729 86.6553 144.729 87.1364V87.9091C144.729 88.5682 144.843 89.1269 145.07 89.5852C145.301 90.0398 145.621 90.3864 146.031 90.625C146.44 90.8598 146.915 90.9773 147.457 90.9773C147.809 90.9773 148.127 90.928 148.411 90.8295C148.699 90.7273 148.947 90.5758 149.156 90.375C149.364 90.1705 149.525 89.9167 149.638 89.6136L150.934 89.9773C150.798 90.4167 150.568 90.803 150.246 91.1364C149.924 91.4659 149.527 91.7235 149.053 91.9091C148.58 92.0909 148.048 92.1818 147.457 92.1818ZM164.746 83.2727L161.519 92H160.156L156.928 83.2727H158.383L160.792 90.2273H160.883L163.292 83.2727H164.746ZM169.749 92.1818C168.961 92.1818 168.27 91.9943 167.675 91.6193C167.085 91.2443 166.622 90.7197 166.289 90.0455C165.96 89.3712 165.795 88.5833 165.795 87.6818C165.795 86.7727 165.96 85.9792 166.289 85.3011C166.622 84.6231 167.085 84.0966 167.675 83.7216C168.27 83.3466 168.961 83.1591 169.749 83.1591C170.537 83.1591 171.227 83.3466 171.817 83.7216C172.412 84.0966 172.874 84.6231 173.204 85.3011C173.537 85.9792 173.704 86.7727 173.704 87.6818C173.704 88.5833 173.537 89.3712 173.204 90.0455C172.874 90.7197 172.412 91.2443 171.817 91.6193C171.227 91.9943 170.537 92.1818 169.749 92.1818ZM169.749 90.9773C170.348 90.9773 170.84 90.8239 171.227 90.517C171.613 90.2102 171.899 89.8068 172.085 89.3068C172.27 88.8068 172.363 88.2652 172.363 87.6818C172.363 87.0985 172.27 86.5549 172.085 86.0511C171.899 85.5473 171.613 85.1402 171.227 84.8295C170.84 84.5189 170.348 84.3636 169.749 84.3636C169.151 84.3636 168.658 84.5189 168.272 84.8295C167.886 85.1402 167.6 85.5473 167.414 86.0511C167.228 86.5549 167.136 87.0985 167.136 87.6818C167.136 88.2652 167.228 88.8068 167.414 89.3068C167.6 89.8068 167.886 90.2102 168.272 90.517C168.658 90.8239 169.151 90.9773 169.749 90.9773ZM179.296 92.1818C178.478 92.1818 177.773 91.9886 177.183 91.6023C176.592 91.2159 176.137 90.6837 175.819 90.0057C175.501 89.3277 175.342 88.553 175.342 87.6818C175.342 86.7955 175.504 86.0133 175.83 85.3352C176.16 84.6534 176.618 84.1212 177.205 83.7386C177.796 83.3523 178.486 83.1591 179.273 83.1591C179.887 83.1591 180.44 83.2727 180.933 83.5C181.425 83.7273 181.828 84.0455 182.143 84.4545C182.457 84.8636 182.652 85.3409 182.728 85.8864H181.387C181.285 85.4886 181.058 85.1364 180.705 84.8295C180.357 84.5189 179.887 84.3636 179.296 84.3636C178.773 84.3636 178.315 84.5 177.921 84.7727C177.531 85.0417 177.226 85.4223 177.006 85.9148C176.79 86.4034 176.683 86.9773 176.683 87.6364C176.683 88.3106 176.789 88.8977 177.001 89.3977C177.217 89.8977 177.52 90.286 177.91 90.5625C178.304 90.839 178.766 90.9773 179.296 90.9773C179.645 90.9773 179.961 90.9167 180.245 90.7955C180.529 90.6742 180.77 90.5 180.967 90.2727C181.164 90.0455 181.304 89.7727 181.387 89.4545H182.728C182.652 89.9697 182.465 90.4337 182.165 90.8466C181.87 91.2557 181.478 91.5814 180.989 91.8239C180.504 92.0625 179.94 92.1818 179.296 92.1818ZM188.347 92.1818C187.506 92.1818 186.781 91.9962 186.171 91.625C185.565 91.25 185.097 90.7273 184.768 90.0568C184.442 89.3826 184.279 88.5985 184.279 87.7045C184.279 86.8106 184.442 86.0227 184.768 85.3409C185.097 84.6553 185.556 84.1212 186.143 83.7386C186.734 83.3523 187.423 83.1591 188.211 83.1591C188.665 83.1591 189.114 83.2348 189.558 83.3864C190.001 83.5379 190.404 83.7841 190.768 84.125C191.131 84.4621 191.421 84.9091 191.637 85.4659C191.853 86.0227 191.961 86.7083 191.961 87.5227V88.0909H185.234V86.9318H190.597C190.597 86.4394 190.499 86 190.302 85.6136C190.109 85.2273 189.832 84.9223 189.472 84.6989C189.116 84.4754 188.696 84.3636 188.211 84.3636C187.677 84.3636 187.215 84.4962 186.825 84.7614C186.438 85.0227 186.141 85.3636 185.933 85.7841C185.724 86.2045 185.62 86.6553 185.62 87.1364V87.9091C185.62 88.5682 185.734 89.1269 185.961 89.5852C186.192 90.0398 186.512 90.3864 186.921 90.625C187.33 90.8598 187.806 90.9773 188.347 90.9773C188.7 90.9773 189.018 90.928 189.302 90.8295C189.59 90.7273 189.838 90.5758 190.046 90.375C190.254 90.1705 190.415 89.9167 190.529 89.6136L191.825 89.9773C191.688 90.4167 191.459 90.803 191.137 91.1364C190.815 91.4659 190.417 91.7235 189.944 91.9091C189.47 92.0909 188.938 92.1818 188.347 92.1818ZM189.325 82.2273L188.143 80.6364L186.961 82.2273H185.688V82.1364L187.529 79.7727H188.756L190.597 82.1364V82.2273H189.325ZM201.796 92.1818C201.069 92.1818 200.427 91.9981 199.87 91.6307C199.313 91.2595 198.878 90.7367 198.563 90.0625C198.249 89.3845 198.092 88.5833 198.092 87.6591C198.092 86.7424 198.249 85.947 198.563 85.2727C198.878 84.5985 199.315 84.0777 199.876 83.7102C200.436 83.3428 201.084 83.1591 201.819 83.1591C202.387 83.1591 202.836 83.2538 203.165 83.4432C203.499 83.6288 203.753 83.8409 203.927 84.0795C204.105 84.3144 204.243 84.5076 204.342 84.6591H204.455V80.3636H205.796V92H204.501V90.6591H204.342C204.243 90.8182 204.103 91.0189 203.921 91.2614C203.739 91.5 203.48 91.714 203.143 91.9034C202.806 92.089 202.357 92.1818 201.796 92.1818ZM201.978 90.9773C202.516 90.9773 202.97 90.8371 203.342 90.5568C203.713 90.2727 203.995 89.8807 204.188 89.3807C204.381 88.8769 204.478 88.2955 204.478 87.6364C204.478 86.9848 204.383 86.4148 204.194 85.9261C204.004 85.4337 203.724 85.0511 203.353 84.7784C202.982 84.5019 202.523 84.3636 201.978 84.3636C201.41 84.3636 200.936 84.5095 200.558 84.8011C200.183 85.089 199.9 85.4811 199.711 85.9773C199.525 86.4697 199.433 87.0227 199.433 87.6364C199.433 88.2576 199.527 88.822 199.717 89.3295C199.91 89.8333 200.194 90.2348 200.569 90.5341C200.948 90.8295 201.417 90.9773 201.978 90.9773ZM212.097 92.1818C211.256 92.1818 210.531 91.9962 209.921 91.625C209.315 91.25 208.847 90.7273 208.518 90.0568C208.192 89.3826 208.029 88.5985 208.029 87.7045C208.029 86.8106 208.192 86.0227 208.518 85.3409C208.847 84.6553 209.306 84.1212 209.893 83.7386C210.484 83.3523 211.173 83.1591 211.961 83.1591C212.415 83.1591 212.864 83.2348 213.308 83.3864C213.751 83.5379 214.154 83.7841 214.518 84.125C214.881 84.4621 215.171 84.9091 215.387 85.4659C215.603 86.0227 215.711 86.7083 215.711 87.5227V88.0909H208.984V86.9318H214.347C214.347 86.4394 214.249 86 214.052 85.6136C213.859 85.2273 213.582 84.9223 213.222 84.6989C212.866 84.4754 212.446 84.3636 211.961 84.3636C211.427 84.3636 210.965 84.4962 210.575 84.7614C210.188 85.0227 209.891 85.3636 209.683 85.7841C209.474 86.2045 209.37 86.6553 209.37 87.1364V87.9091C209.37 88.5682 209.484 89.1269 209.711 89.5852C209.942 90.0398 210.262 90.3864 210.671 90.625C211.08 90.8598 211.556 90.9773 212.097 90.9773C212.45 90.9773 212.768 90.928 213.052 90.8295C213.34 90.7273 213.588 90.5758 213.796 90.375C214.004 90.1705 214.165 89.9167 214.279 89.6136L215.575 89.9773C215.438 90.4167 215.209 90.803 214.887 91.1364C214.565 91.4659 214.167 91.7235 213.694 91.9091C213.22 92.0909 212.688 92.1818 212.097 92.1818ZM223.933 85.2273L222.728 85.5682C222.652 85.3674 222.54 85.1723 222.393 84.983C222.249 84.7898 222.052 84.6307 221.802 84.5057C221.552 84.3807 221.232 84.3182 220.842 84.3182C220.308 84.3182 219.862 84.4413 219.506 84.6875C219.154 84.9299 218.978 85.2386 218.978 85.6136C218.978 85.947 219.099 86.2102 219.342 86.4034C219.584 86.5966 219.963 86.7576 220.478 86.8864L221.773 87.2045C222.554 87.3939 223.135 87.6837 223.518 88.0739C223.9 88.4602 224.092 88.9583 224.092 89.5682C224.092 90.0682 223.948 90.5152 223.66 90.9091C223.376 91.303 222.978 91.6136 222.467 91.8409C221.955 92.0682 221.361 92.1818 220.683 92.1818C219.792 92.1818 219.056 91.9886 218.472 91.6023C217.889 91.2159 217.52 90.6515 217.364 89.9091L218.637 89.5909C218.758 90.0606 218.987 90.4129 219.325 90.6477C219.665 90.8826 220.111 91 220.66 91C221.285 91 221.781 90.8674 222.148 90.6023C222.52 90.3333 222.705 90.0114 222.705 89.6364C222.705 89.3333 222.599 89.0795 222.387 88.875C222.175 88.6667 221.849 88.5114 221.41 88.4091L219.955 88.0682C219.156 87.8788 218.569 87.5852 218.194 87.1875C217.823 86.786 217.637 86.2841 217.637 85.6818C217.637 85.1894 217.775 84.7538 218.052 84.375C218.332 83.9962 218.713 83.6989 219.194 83.483C219.679 83.267 220.228 83.1591 220.842 83.1591C221.705 83.1591 222.383 83.3485 222.876 83.7273C223.372 84.1061 223.724 84.6061 223.933 85.2273ZM229.769 92.1818C228.928 92.1818 228.203 91.9962 227.593 91.625C226.987 91.25 226.519 90.7273 226.19 90.0568C225.864 89.3826 225.701 88.5985 225.701 87.7045C225.701 86.8106 225.864 86.0227 226.19 85.3409C226.519 84.6553 226.978 84.1212 227.565 83.7386C228.156 83.3523 228.845 83.1591 229.633 83.1591C230.087 83.1591 230.536 83.2348 230.979 83.3864C231.423 83.5379 231.826 83.7841 232.19 84.125C232.553 84.4621 232.843 84.9091 233.059 85.4659C233.275 86.0227 233.383 86.7083 233.383 87.5227V88.0909H226.656V86.9318H232.019C232.019 86.4394 231.921 86 231.724 85.6136C231.531 85.2273 231.254 84.9223 230.894 84.6989C230.538 84.4754 230.118 84.3636 229.633 84.3636C229.099 84.3636 228.637 84.4962 228.246 84.7614C227.86 85.0227 227.563 85.3636 227.354 85.7841C227.146 86.2045 227.042 86.6553 227.042 87.1364V87.9091C227.042 88.5682 227.156 89.1269 227.383 89.5852C227.614 90.0398 227.934 90.3864 228.343 90.625C228.752 90.8598 229.228 90.9773 229.769 90.9773C230.121 90.9773 230.44 90.928 230.724 90.8295C231.012 90.7273 231.26 90.5758 231.468 90.375C231.676 90.1705 231.837 89.9167 231.951 89.6136L233.246 89.9773C233.11 90.4167 232.881 90.803 232.559 91.1364C232.237 91.4659 231.839 91.7235 231.366 91.9091C230.892 92.0909 230.36 92.1818 229.769 92.1818ZM235.423 83.2727H236.763V92.6364C236.763 93.1742 236.671 93.6402 236.485 94.0341C236.303 94.428 236.027 94.733 235.656 94.9489C235.288 95.1648 234.824 95.2727 234.263 95.2727C234.218 95.2727 234.173 95.2727 234.127 95.2727C234.082 95.2727 234.036 95.2727 233.991 95.2727V94.0227C234.036 94.0227 234.078 94.0227 234.116 94.0227C234.154 94.0227 234.195 94.0227 234.241 94.0227C234.65 94.0227 234.949 93.9015 235.138 93.6591C235.328 93.4205 235.423 93.0795 235.423 92.6364V83.2727ZM236.082 81.8182C235.82 81.8182 235.595 81.7292 235.406 81.5511C235.22 81.3731 235.127 81.1591 235.127 80.9091C235.127 80.6591 235.22 80.4451 235.406 80.267C235.595 80.089 235.82 80 236.082 80C236.343 80 236.567 80.089 236.752 80.267C236.942 80.4451 237.036 80.6591 237.036 80.9091C237.036 81.1591 236.942 81.3731 236.752 81.5511C236.567 81.7292 236.343 81.8182 236.082 81.8182ZM241.788 92.2045C241.235 92.2045 240.733 92.1004 240.282 91.892C239.831 91.6799 239.473 91.375 239.208 90.9773C238.943 90.5758 238.81 90.0909 238.81 89.5227C238.81 89.0227 238.909 88.6174 239.106 88.3068C239.303 87.9924 239.566 87.7462 239.896 87.5682C240.225 87.3902 240.589 87.2576 240.987 87.1705C241.388 87.0795 241.791 87.0076 242.197 86.9545C242.727 86.8864 243.157 86.8352 243.487 86.8011C243.82 86.7633 244.062 86.7008 244.214 86.6136C244.369 86.5265 244.447 86.375 244.447 86.1591V86.1136C244.447 85.553 244.293 85.1174 243.987 84.8068C243.683 84.4962 243.223 84.3409 242.606 84.3409C241.966 84.3409 241.464 84.4811 241.1 84.7614C240.737 85.0417 240.481 85.3409 240.333 85.6591L239.06 85.2045C239.288 84.6742 239.591 84.2614 239.969 83.9659C240.352 83.6667 240.769 83.4583 241.219 83.3409C241.674 83.2197 242.121 83.1591 242.56 83.1591C242.841 83.1591 243.163 83.1932 243.526 83.2614C243.894 83.3258 244.248 83.4602 244.589 83.6648C244.933 83.8693 245.219 84.178 245.447 84.5909C245.674 85.0038 245.788 85.5568 245.788 86.25V92H244.447V90.8182H244.379C244.288 91.0076 244.136 91.2102 243.924 91.4261C243.712 91.642 243.43 91.8258 243.077 91.9773C242.725 92.1288 242.295 92.2045 241.788 92.2045ZM241.992 91C242.522 91 242.969 90.8958 243.333 90.6875C243.701 90.4792 243.977 90.2102 244.163 89.8807C244.352 89.5511 244.447 89.2045 244.447 88.8409V87.6136C244.39 87.6818 244.265 87.7443 244.072 87.8011C243.882 87.8542 243.663 87.9015 243.413 87.9432C243.166 87.9811 242.926 88.0152 242.691 88.0455C242.46 88.072 242.272 88.0947 242.129 88.1136C241.78 88.1591 241.454 88.233 241.151 88.3352C240.852 88.4337 240.61 88.5833 240.424 88.7841C240.242 88.9811 240.151 89.25 240.151 89.5909C240.151 90.0568 240.324 90.4091 240.668 90.6477C241.017 90.8826 241.458 91 241.992 91ZM256.281 92.1818C255.462 92.1818 254.758 91.9886 254.167 91.6023C253.576 91.2159 253.121 90.6837 252.803 90.0057C252.485 89.3277 252.326 88.553 252.326 87.6818C252.326 86.7955 252.489 86.0133 252.815 85.3352C253.144 84.6534 253.603 84.1212 254.19 83.7386C254.781 83.3523 255.47 83.1591 256.258 83.1591C256.871 83.1591 257.424 83.2727 257.917 83.5C258.409 83.7273 258.813 84.0455 259.127 84.4545C259.442 84.8636 259.637 85.3409 259.712 85.8864H258.371C258.269 85.4886 258.042 85.1364 257.69 84.8295C257.341 84.5189 256.871 84.3636 256.281 84.3636C255.758 84.3636 255.299 84.5 254.906 84.7727C254.515 85.0417 254.21 85.4223 253.991 85.9148C253.775 86.4034 253.667 86.9773 253.667 87.6364C253.667 88.3106 253.773 88.8977 253.985 89.3977C254.201 89.8977 254.504 90.286 254.894 90.5625C255.288 90.839 255.75 90.9773 256.281 90.9773C256.629 90.9773 256.945 90.9167 257.229 90.7955C257.513 90.6742 257.754 90.5 257.951 90.2727C258.148 90.0455 258.288 89.7727 258.371 89.4545H259.712C259.637 89.9697 259.449 90.4337 259.15 90.8466C258.854 91.2557 258.462 91.5814 257.974 91.8239C257.489 92.0625 256.924 92.1818 256.281 92.1818ZM261.673 92V83.2727H262.968V84.5909H263.059C263.218 84.1591 263.506 83.8087 263.923 83.5398C264.339 83.2708 264.809 83.1364 265.332 83.1364C265.43 83.1364 265.553 83.1383 265.701 83.142C265.849 83.1458 265.96 83.1515 266.036 83.1591V84.5227C265.991 84.5114 265.887 84.4943 265.724 84.4716C265.565 84.4451 265.396 84.4318 265.218 84.4318C264.794 84.4318 264.415 84.5208 264.082 84.6989C263.752 84.8731 263.491 85.1155 263.298 85.4261C263.108 85.733 263.013 86.0833 263.013 86.4773V92H261.673ZM267.626 92V83.2727H268.967V92H267.626ZM268.308 81.8182C268.046 81.8182 267.821 81.7292 267.631 81.5511C267.446 81.3731 267.353 81.1591 267.353 80.9091C267.353 80.6591 267.446 80.4451 267.631 80.267C267.821 80.089 268.046 80 268.308 80C268.569 80 268.792 80.089 268.978 80.267C269.167 80.4451 269.262 80.6591 269.262 80.9091C269.262 81.1591 269.167 81.3731 268.978 81.5511C268.792 81.7292 268.569 81.8182 268.308 81.8182ZM271.423 95.2727V83.2727H272.718V84.6591H272.877C272.976 84.5076 273.112 84.3144 273.286 84.0795C273.464 83.8409 273.718 83.6288 274.048 83.4432C274.381 83.2538 274.832 83.1591 275.4 83.1591C276.135 83.1591 276.782 83.3428 277.343 83.7102C277.904 84.0777 278.341 84.5985 278.656 85.2727C278.97 85.947 279.127 86.7424 279.127 87.6591C279.127 88.5833 278.97 89.3845 278.656 90.0625C278.341 90.7367 277.906 91.2595 277.349 91.6307C276.792 91.9981 276.15 92.1818 275.423 92.1818C274.862 92.1818 274.413 92.089 274.076 91.9034C273.739 91.714 273.479 91.5 273.298 91.2614C273.116 91.0189 272.976 90.8182 272.877 90.6591H272.763V95.2727H271.423ZM272.741 87.6364C272.741 88.2955 272.837 88.8769 273.031 89.3807C273.224 89.8807 273.506 90.2727 273.877 90.5568C274.248 90.8371 274.703 90.9773 275.241 90.9773C275.801 90.9773 276.269 90.8295 276.644 90.5341C277.023 90.2348 277.307 89.8333 277.496 89.3295C277.69 88.822 277.786 88.2576 277.786 87.6364C277.786 87.0227 277.692 86.4697 277.502 85.9773C277.317 85.4811 277.034 85.089 276.656 84.8011C276.281 84.5095 275.809 84.3636 275.241 84.3636C274.695 84.3636 274.237 84.5019 273.866 84.7784C273.495 85.0511 273.214 85.4337 273.025 85.9261C272.835 86.4148 272.741 86.9848 272.741 87.6364ZM284.968 83.2727V84.4091H280.445V83.2727H284.968ZM281.763 81.1818H283.104V89.5C283.104 89.8788 283.159 90.1629 283.269 90.3523C283.383 90.5379 283.527 90.6629 283.701 90.7273C283.879 90.7879 284.067 90.8182 284.263 90.8182C284.411 90.8182 284.532 90.8106 284.627 90.7955C284.722 90.7765 284.798 90.7614 284.854 90.75L285.127 91.9545C285.036 91.9886 284.909 92.0227 284.746 92.0568C284.584 92.0947 284.377 92.1136 284.127 92.1136C283.748 92.1136 283.377 92.0322 283.013 91.8693C282.654 91.7064 282.354 91.4583 282.116 91.125C281.881 90.7917 281.763 90.3712 281.763 89.8636V81.1818ZM290.437 92.1818C289.649 92.1818 288.958 91.9943 288.363 91.6193C287.772 91.2443 287.31 90.7197 286.977 90.0455C286.647 89.3712 286.482 88.5833 286.482 87.6818C286.482 86.7727 286.647 85.9792 286.977 85.3011C287.31 84.6231 287.772 84.0966 288.363 83.7216C288.958 83.3466 289.649 83.1591 290.437 83.1591C291.225 83.1591 291.914 83.3466 292.505 83.7216C293.1 84.0966 293.562 84.6231 293.891 85.3011C294.225 85.9792 294.391 86.7727 294.391 87.6818C294.391 88.5833 294.225 89.3712 293.891 90.0455C293.562 90.7197 293.1 91.2443 292.505 91.6193C291.914 91.9943 291.225 92.1818 290.437 92.1818ZM290.437 90.9773C291.035 90.9773 291.528 90.8239 291.914 90.517C292.3 90.2102 292.586 89.8068 292.772 89.3068C292.958 88.8068 293.05 88.2652 293.05 87.6818C293.05 87.0985 292.958 86.5549 292.772 86.0511C292.586 85.5473 292.3 85.1402 291.914 84.8295C291.528 84.5189 291.035 84.3636 290.437 84.3636C289.838 84.3636 289.346 84.5189 288.96 84.8295C288.573 85.1402 288.287 85.5473 288.102 86.0511C287.916 86.5549 287.823 87.0985 287.823 87.6818C287.823 88.2652 287.916 88.8068 288.102 89.3068C288.287 89.8068 288.573 90.2102 288.96 90.517C289.346 90.8239 289.838 90.9773 290.437 90.9773ZM299.961 95.4545C299.313 95.4545 298.756 95.3712 298.29 95.2045C297.825 95.0417 297.436 94.8258 297.126 94.5568C296.819 94.2917 296.575 94.0076 296.393 93.7045L297.461 92.9545C297.582 93.1136 297.736 93.2955 297.921 93.5C298.107 93.7083 298.361 93.8883 298.683 94.0398C299.008 94.1951 299.434 94.2727 299.961 94.2727C300.665 94.2727 301.247 94.1023 301.705 93.7614C302.164 93.4205 302.393 92.8864 302.393 92.1591V90.3864H302.279C302.181 90.5455 302.04 90.7424 301.859 90.9773C301.681 91.2083 301.423 91.4148 301.086 91.5966C300.753 91.7746 300.302 91.8636 299.734 91.8636C299.029 91.8636 298.397 91.697 297.836 91.3636C297.279 91.0303 296.838 90.5455 296.512 89.9091C296.19 89.2727 296.029 88.5 296.029 87.5909C296.029 86.697 296.186 85.9186 296.501 85.2557C296.815 84.589 297.253 84.0739 297.813 83.7102C298.374 83.3428 299.022 83.1591 299.756 83.1591C300.325 83.1591 300.775 83.2538 301.109 83.4432C301.446 83.6288 301.703 83.8409 301.881 84.0795C302.063 84.3144 302.203 84.5076 302.302 84.6591H302.438V83.2727H303.734V92.25C303.734 93 303.563 93.6098 303.222 94.0795C302.885 94.553 302.431 94.8996 301.859 95.1193C301.29 95.3428 300.658 95.4545 299.961 95.4545ZM299.915 90.6591C300.453 90.6591 300.908 90.536 301.279 90.2898C301.65 90.0436 301.933 89.6894 302.126 89.2273C302.319 88.7652 302.415 88.2121 302.415 87.5682C302.415 86.9394 302.321 86.3845 302.131 85.9034C301.942 85.4223 301.662 85.0455 301.29 84.7727C300.919 84.5 300.461 84.3636 299.915 84.3636C299.347 84.3636 298.874 84.5076 298.495 84.7955C298.12 85.0833 297.838 85.4697 297.648 85.9545C297.463 86.4394 297.37 86.9773 297.37 87.5682C297.37 88.1742 297.465 88.7102 297.654 89.1761C297.847 89.6383 298.131 90.0019 298.506 90.267C298.885 90.5284 299.355 90.6591 299.915 90.6591ZM306.188 92V83.2727H307.484V84.5909H307.575C307.734 84.1591 308.022 83.8087 308.438 83.5398C308.855 83.2708 309.325 83.1364 309.847 83.1364C309.946 83.1364 310.069 83.1383 310.217 83.142C310.364 83.1458 310.476 83.1515 310.552 83.1591V84.5227C310.506 84.5114 310.402 84.4943 310.239 84.4716C310.08 84.4451 309.912 84.4318 309.734 84.4318C309.309 84.4318 308.931 84.5208 308.597 84.6989C308.268 84.8731 308.006 85.1155 307.813 85.4261C307.624 85.733 307.529 86.0833 307.529 86.4773V92H306.188ZM314.71 92.2045C314.156 92.2045 313.655 92.1004 313.204 91.892C312.753 91.6799 312.395 91.375 312.13 90.9773C311.865 90.5758 311.732 90.0909 311.732 89.5227C311.732 89.0227 311.831 88.6174 312.028 88.3068C312.225 87.9924 312.488 87.7462 312.817 87.5682C313.147 87.3902 313.511 87.2576 313.908 87.1705C314.31 87.0795 314.713 87.0076 315.119 86.9545C315.649 86.8864 316.079 86.8352 316.408 86.8011C316.742 86.7633 316.984 86.7008 317.136 86.6136C317.291 86.5265 317.369 86.375 317.369 86.1591V86.1136C317.369 85.553 317.215 85.1174 316.908 84.8068C316.605 84.4962 316.145 84.3409 315.528 84.3409C314.888 84.3409 314.386 84.4811 314.022 84.7614C313.658 85.0417 313.403 85.3409 313.255 85.6591L311.982 85.2045C312.21 84.6742 312.513 84.2614 312.891 83.9659C313.274 83.6667 313.691 83.4583 314.141 83.3409C314.596 83.2197 315.043 83.1591 315.482 83.1591C315.763 83.1591 316.085 83.1932 316.448 83.2614C316.816 83.3258 317.17 83.4602 317.511 83.6648C317.855 83.8693 318.141 84.178 318.369 84.5909C318.596 85.0038 318.71 85.5568 318.71 86.25V92H317.369V90.8182H317.3C317.21 91.0076 317.058 91.2102 316.846 91.4261C316.634 91.642 316.352 91.8258 315.999 91.9773C315.647 92.1288 315.217 92.2045 314.71 92.2045ZM314.914 91C315.444 91 315.891 90.8958 316.255 90.6875C316.622 90.4792 316.899 90.2102 317.085 89.8807C317.274 89.5511 317.369 89.2045 317.369 88.8409V87.6136C317.312 87.6818 317.187 87.7443 316.994 87.8011C316.804 87.8542 316.585 87.9015 316.335 87.9432C316.088 87.9811 315.848 88.0152 315.613 88.0455C315.382 88.072 315.194 88.0947 315.05 88.1136C314.702 88.1591 314.376 88.233 314.073 88.3352C313.774 88.4337 313.531 88.5833 313.346 88.7841C313.164 88.9811 313.073 89.25 313.073 89.5909C313.073 90.0568 313.246 90.4091 313.59 90.6477C313.939 90.8826 314.38 91 314.914 91ZM325.043 83.2727V84.4091H320.339V83.2727H325.043ZM321.748 92V82.0682C321.748 81.5682 321.865 81.1515 322.1 80.8182C322.335 80.4848 322.64 80.2348 323.015 80.0682C323.39 79.9015 323.786 79.8182 324.202 79.8182C324.532 79.8182 324.801 79.8447 325.009 79.8977C325.218 79.9508 325.373 80 325.475 80.0455L325.089 81.2045C325.021 81.1818 324.926 81.1534 324.805 81.1193C324.687 81.0852 324.532 81.0682 324.339 81.0682C323.896 81.0682 323.576 81.1799 323.379 81.4034C323.185 81.6269 323.089 81.9545 323.089 82.3864V92H321.748ZM329.241 92.2045C328.688 92.2045 328.186 92.1004 327.735 91.892C327.284 91.6799 326.926 91.375 326.661 90.9773C326.396 90.5758 326.263 90.0909 326.263 89.5227C326.263 89.0227 326.362 88.6174 326.559 88.3068C326.756 87.9924 327.019 87.7462 327.349 87.5682C327.678 87.3902 328.042 87.2576 328.44 87.1705C328.841 87.0795 329.245 87.0076 329.65 86.9545C330.18 86.8864 330.61 86.8352 330.94 86.8011C331.273 86.7633 331.515 86.7008 331.667 86.6136C331.822 86.5265 331.9 86.375 331.9 86.1591V86.1136C331.9 85.553 331.746 85.1174 331.44 84.8068C331.137 84.4962 330.676 84.3409 330.059 84.3409C329.419 84.3409 328.917 84.4811 328.553 84.7614C328.19 85.0417 327.934 85.3409 327.786 85.6591L326.513 85.2045C326.741 84.6742 327.044 84.2614 327.423 83.9659C327.805 83.6667 328.222 83.4583 328.673 83.3409C329.127 83.2197 329.574 83.1591 330.013 83.1591C330.294 83.1591 330.616 83.1932 330.979 83.2614C331.347 83.3258 331.701 83.4602 332.042 83.6648C332.387 83.8693 332.673 84.178 332.9 84.5909C333.127 85.0038 333.241 85.5568 333.241 86.25V92H331.9V90.8182H331.832C331.741 91.0076 331.589 91.2102 331.377 91.4261C331.165 91.642 330.883 91.8258 330.531 91.9773C330.178 92.1288 329.748 92.2045 329.241 92.2045ZM329.445 91C329.976 91 330.423 90.8958 330.786 90.6875C331.154 90.4792 331.43 90.2102 331.616 89.8807C331.805 89.5511 331.9 89.2045 331.9 88.8409V87.6136C331.843 87.6818 331.718 87.7443 331.525 87.8011C331.335 87.8542 331.116 87.9015 330.866 87.9432C330.62 87.9811 330.379 88.0152 330.144 88.0455C329.913 88.072 329.726 88.0947 329.582 88.1136C329.233 88.1591 328.907 88.233 328.604 88.3352C328.305 88.4337 328.063 88.5833 327.877 88.7841C327.695 88.9811 327.604 89.25 327.604 89.5909C327.604 90.0568 327.777 90.4091 328.121 90.6477C328.47 90.8826 328.911 91 329.445 91ZM335.688 92V83.2727H336.984V84.5909H337.075C337.234 84.1591 337.522 83.8087 337.938 83.5398C338.355 83.2708 338.825 83.1364 339.347 83.1364C339.446 83.1364 339.569 83.1383 339.717 83.142C339.864 83.1458 339.976 83.1515 340.052 83.1591V84.5227C340.006 84.5114 339.902 84.4943 339.739 84.4716C339.58 84.4451 339.412 84.4318 339.234 84.4318C338.809 84.4318 338.431 84.5208 338.097 84.6989C337.768 84.8731 337.506 85.1155 337.313 85.4261C337.124 85.733 337.029 86.0833 337.029 86.4773V92H335.688ZM349.687 92.1818C348.899 92.1818 348.208 91.9943 347.613 91.6193C347.022 91.2443 346.56 90.7197 346.227 90.0455C345.897 89.3712 345.732 88.5833 345.732 87.6818C345.732 86.7727 345.897 85.9792 346.227 85.3011C346.56 84.6231 347.022 84.0966 347.613 83.7216C348.208 83.3466 348.899 83.1591 349.687 83.1591C350.475 83.1591 351.164 83.3466 351.755 83.7216C352.35 84.0966 352.812 84.6231 353.141 85.3011C353.475 85.9792 353.641 86.7727 353.641 87.6818C353.641 88.5833 353.475 89.3712 353.141 90.0455C352.812 90.7197 352.35 91.2443 351.755 91.6193C351.164 91.9943 350.475 92.1818 349.687 92.1818ZM349.687 90.9773C350.285 90.9773 350.778 90.8239 351.164 90.517C351.55 90.2102 351.836 89.8068 352.022 89.3068C352.208 88.8068 352.3 88.2652 352.3 87.6818C352.3 87.0985 352.208 86.5549 352.022 86.0511C351.836 85.5473 351.55 85.1402 351.164 84.8295C350.778 84.5189 350.285 84.3636 349.687 84.3636C349.088 84.3636 348.596 84.5189 348.21 84.8295C347.823 85.1402 347.537 85.5473 347.352 86.0511C347.166 86.5549 347.073 87.0985 347.073 87.6818C347.073 88.2652 347.166 88.8068 347.352 89.3068C347.537 89.8068 347.823 90.2102 348.21 90.517C348.596 90.8239 349.088 90.9773 349.687 90.9773ZM361.188 88.4318V83.2727H362.529V92H361.188V90.5227H361.097C360.893 90.9659 360.575 91.3428 360.143 91.6534C359.711 91.9602 359.165 92.1136 358.506 92.1136C357.961 92.1136 357.476 91.9943 357.052 91.7557C356.628 91.5133 356.294 91.1496 356.052 90.6648C355.809 90.1761 355.688 89.5606 355.688 88.8182V83.2727H357.029V88.7273C357.029 89.3636 357.207 89.8712 357.563 90.25C357.923 90.6288 358.381 90.8182 358.938 90.8182C359.272 90.8182 359.611 90.733 359.955 90.5625C360.304 90.392 360.595 90.1307 360.83 89.7784C361.069 89.4261 361.188 88.9773 361.188 88.4318ZM128.562 116.182C127.835 116.182 127.192 115.998 126.636 115.631C126.079 115.259 125.643 114.737 125.329 114.062C125.014 113.384 124.857 112.583 124.857 111.659C124.857 110.742 125.014 109.947 125.329 109.273C125.643 108.598 126.081 108.078 126.641 107.71C127.202 107.343 127.85 107.159 128.585 107.159C129.153 107.159 129.602 107.254 129.931 107.443C130.264 107.629 130.518 107.841 130.692 108.08C130.871 108.314 131.009 108.508 131.107 108.659H131.221V104.364H132.562V116H131.266V114.659H131.107C131.009 114.818 130.869 115.019 130.687 115.261C130.505 115.5 130.246 115.714 129.908 115.903C129.571 116.089 129.122 116.182 128.562 116.182ZM128.744 114.977C129.281 114.977 129.736 114.837 130.107 114.557C130.478 114.273 130.761 113.881 130.954 113.381C131.147 112.877 131.244 112.295 131.244 111.636C131.244 110.985 131.149 110.415 130.96 109.926C130.77 109.434 130.49 109.051 130.119 108.778C129.747 108.502 129.289 108.364 128.744 108.364C128.175 108.364 127.702 108.509 127.323 108.801C126.948 109.089 126.666 109.481 126.477 109.977C126.291 110.47 126.198 111.023 126.198 111.636C126.198 112.258 126.293 112.822 126.482 113.33C126.675 113.833 126.96 114.235 127.335 114.534C127.713 114.83 128.183 114.977 128.744 114.977ZM138.863 116.182C138.022 116.182 137.297 115.996 136.687 115.625C136.081 115.25 135.613 114.727 135.283 114.057C134.958 113.383 134.795 112.598 134.795 111.705C134.795 110.811 134.958 110.023 135.283 109.341C135.613 108.655 136.071 108.121 136.658 107.739C137.249 107.352 137.939 107.159 138.727 107.159C139.181 107.159 139.63 107.235 140.073 107.386C140.516 107.538 140.92 107.784 141.283 108.125C141.647 108.462 141.937 108.909 142.153 109.466C142.369 110.023 142.477 110.708 142.477 111.523V112.091H135.749V110.932H141.113C141.113 110.439 141.014 110 140.817 109.614C140.624 109.227 140.348 108.922 139.988 108.699C139.632 108.475 139.211 108.364 138.727 108.364C138.192 108.364 137.73 108.496 137.34 108.761C136.954 109.023 136.656 109.364 136.448 109.784C136.24 110.205 136.136 110.655 136.136 111.136V111.909C136.136 112.568 136.249 113.127 136.477 113.585C136.708 114.04 137.028 114.386 137.437 114.625C137.846 114.86 138.321 114.977 138.863 114.977C139.215 114.977 139.533 114.928 139.817 114.83C140.105 114.727 140.353 114.576 140.562 114.375C140.77 114.17 140.931 113.917 141.045 113.614L142.34 113.977C142.204 114.417 141.975 114.803 141.653 115.136C141.331 115.466 140.933 115.723 140.46 115.909C139.986 116.091 139.454 116.182 138.863 116.182ZM150.698 109.227L149.494 109.568C149.418 109.367 149.306 109.172 149.158 108.983C149.014 108.79 148.817 108.631 148.567 108.506C148.317 108.381 147.997 108.318 147.607 108.318C147.073 108.318 146.628 108.441 146.272 108.688C145.92 108.93 145.744 109.239 145.744 109.614C145.744 109.947 145.865 110.21 146.107 110.403C146.35 110.597 146.728 110.758 147.244 110.886L148.539 111.205C149.319 111.394 149.901 111.684 150.283 112.074C150.666 112.46 150.857 112.958 150.857 113.568C150.857 114.068 150.713 114.515 150.425 114.909C150.141 115.303 149.744 115.614 149.232 115.841C148.721 116.068 148.126 116.182 147.448 116.182C146.558 116.182 145.821 115.989 145.238 115.602C144.655 115.216 144.285 114.652 144.13 113.909L145.403 113.591C145.524 114.061 145.753 114.413 146.09 114.648C146.431 114.883 146.876 115 147.425 115C148.05 115 148.547 114.867 148.914 114.602C149.285 114.333 149.471 114.011 149.471 113.636C149.471 113.333 149.365 113.08 149.153 112.875C148.941 112.667 148.615 112.511 148.175 112.409L146.721 112.068C145.922 111.879 145.335 111.585 144.96 111.188C144.588 110.786 144.403 110.284 144.403 109.682C144.403 109.189 144.541 108.754 144.817 108.375C145.098 107.996 145.478 107.699 145.96 107.483C146.444 107.267 146.994 107.159 147.607 107.159C148.471 107.159 149.149 107.348 149.641 107.727C150.138 108.106 150.49 108.606 150.698 109.227ZM156.421 116.182C155.603 116.182 154.898 115.989 154.308 115.602C153.717 115.216 153.262 114.684 152.944 114.006C152.626 113.328 152.467 112.553 152.467 111.682C152.467 110.795 152.629 110.013 152.955 109.335C153.285 108.653 153.743 108.121 154.33 107.739C154.921 107.352 155.611 107.159 156.398 107.159C157.012 107.159 157.565 107.273 158.058 107.5C158.55 107.727 158.953 108.045 159.268 108.455C159.582 108.864 159.777 109.341 159.853 109.886H158.512C158.41 109.489 158.183 109.136 157.83 108.83C157.482 108.519 157.012 108.364 156.421 108.364C155.898 108.364 155.44 108.5 155.046 108.773C154.656 109.042 154.351 109.422 154.131 109.915C153.915 110.403 153.808 110.977 153.808 111.636C153.808 112.311 153.914 112.898 154.126 113.398C154.342 113.898 154.645 114.286 155.035 114.562C155.429 114.839 155.891 114.977 156.421 114.977C156.77 114.977 157.086 114.917 157.37 114.795C157.654 114.674 157.895 114.5 158.092 114.273C158.289 114.045 158.429 113.773 158.512 113.455H159.853C159.777 113.97 159.59 114.434 159.29 114.847C158.995 115.256 158.603 115.581 158.114 115.824C157.629 116.062 157.065 116.182 156.421 116.182ZM161.813 116V107.273H163.109V108.591H163.2C163.359 108.159 163.647 107.809 164.063 107.54C164.48 107.271 164.95 107.136 165.472 107.136C165.571 107.136 165.694 107.138 165.842 107.142C165.989 107.146 166.101 107.152 166.177 107.159V108.523C166.131 108.511 166.027 108.494 165.864 108.472C165.705 108.445 165.537 108.432 165.359 108.432C164.934 108.432 164.556 108.521 164.222 108.699C163.893 108.873 163.631 109.116 163.438 109.426C163.249 109.733 163.154 110.083 163.154 110.477V116H161.813ZM167.766 116V107.273H169.107V116H167.766ZM168.448 105.818C168.187 105.818 167.961 105.729 167.772 105.551C167.586 105.373 167.494 105.159 167.494 104.909C167.494 104.659 167.586 104.445 167.772 104.267C167.961 104.089 168.187 104 168.448 104C168.71 104 168.933 104.089 169.119 104.267C169.308 104.445 169.403 104.659 169.403 104.909C169.403 105.159 169.308 105.373 169.119 105.551C168.933 105.729 168.71 105.818 168.448 105.818ZM171.563 119.273V107.273H172.859V108.659H173.018C173.116 108.508 173.253 108.314 173.427 108.08C173.605 107.841 173.859 107.629 174.188 107.443C174.522 107.254 174.972 107.159 175.54 107.159C176.275 107.159 176.923 107.343 177.484 107.71C178.044 108.078 178.482 108.598 178.796 109.273C179.111 109.947 179.268 110.742 179.268 111.659C179.268 112.583 179.111 113.384 178.796 114.062C178.482 114.737 178.046 115.259 177.489 115.631C176.933 115.998 176.29 116.182 175.563 116.182C175.003 116.182 174.554 116.089 174.217 115.903C173.879 115.714 173.62 115.5 173.438 115.261C173.256 115.019 173.116 114.818 173.018 114.659H172.904V119.273H171.563ZM172.881 111.636C172.881 112.295 172.978 112.877 173.171 113.381C173.364 113.881 173.647 114.273 174.018 114.557C174.389 114.837 174.844 114.977 175.381 114.977C175.942 114.977 176.41 114.83 176.785 114.534C177.164 114.235 177.448 113.833 177.637 113.33C177.83 112.822 177.927 112.258 177.927 111.636C177.927 111.023 177.832 110.47 177.643 109.977C177.457 109.481 177.175 109.089 176.796 108.801C176.421 108.509 175.95 108.364 175.381 108.364C174.836 108.364 174.378 108.502 174.006 108.778C173.635 109.051 173.355 109.434 173.165 109.926C172.976 110.415 172.881 110.985 172.881 111.636ZM185.109 107.273V108.409H180.586V107.273H185.109ZM181.904 105.182H183.245V113.5C183.245 113.879 183.3 114.163 183.41 114.352C183.523 114.538 183.667 114.663 183.842 114.727C184.02 114.788 184.207 114.818 184.404 114.818C184.552 114.818 184.673 114.811 184.768 114.795C184.862 114.777 184.938 114.761 184.995 114.75L185.268 115.955C185.177 115.989 185.05 116.023 184.887 116.057C184.724 116.095 184.518 116.114 184.268 116.114C183.889 116.114 183.518 116.032 183.154 115.869C182.794 115.706 182.495 115.458 182.256 115.125C182.022 114.792 181.904 114.371 181.904 113.864V105.182ZM190.577 116.182C189.79 116.182 189.098 115.994 188.504 115.619C187.913 115.244 187.451 114.72 187.117 114.045C186.788 113.371 186.623 112.583 186.623 111.682C186.623 110.773 186.788 109.979 187.117 109.301C187.451 108.623 187.913 108.097 188.504 107.722C189.098 107.347 189.79 107.159 190.577 107.159C191.365 107.159 192.055 107.347 192.646 107.722C193.24 108.097 193.702 108.623 194.032 109.301C194.365 109.979 194.532 110.773 194.532 111.682C194.532 112.583 194.365 113.371 194.032 114.045C193.702 114.72 193.24 115.244 192.646 115.619C192.055 115.994 191.365 116.182 190.577 116.182ZM190.577 114.977C191.176 114.977 191.668 114.824 192.055 114.517C192.441 114.21 192.727 113.807 192.913 113.307C193.098 112.807 193.191 112.265 193.191 111.682C193.191 111.098 193.098 110.555 192.913 110.051C192.727 109.547 192.441 109.14 192.055 108.83C191.668 108.519 191.176 108.364 190.577 108.364C189.979 108.364 189.487 108.519 189.1 108.83C188.714 109.14 188.428 109.547 188.242 110.051C188.057 110.555 187.964 111.098 187.964 111.682C187.964 112.265 188.057 112.807 188.242 113.307C188.428 113.807 188.714 114.21 189.1 114.517C189.487 114.824 189.979 114.977 190.577 114.977ZM200.102 119.455C199.454 119.455 198.897 119.371 198.431 119.205C197.965 119.042 197.577 118.826 197.266 118.557C196.96 118.292 196.715 118.008 196.533 117.705L197.602 116.955C197.723 117.114 197.876 117.295 198.062 117.5C198.247 117.708 198.501 117.888 198.823 118.04C199.149 118.195 199.575 118.273 200.102 118.273C200.806 118.273 201.388 118.102 201.846 117.761C202.304 117.42 202.533 116.886 202.533 116.159V114.386H202.42C202.321 114.545 202.181 114.742 201.999 114.977C201.821 115.208 201.564 115.415 201.227 115.597C200.893 115.775 200.442 115.864 199.874 115.864C199.17 115.864 198.537 115.697 197.977 115.364C197.42 115.03 196.978 114.545 196.653 113.909C196.331 113.273 196.17 112.5 196.17 111.591C196.17 110.697 196.327 109.919 196.641 109.256C196.956 108.589 197.393 108.074 197.954 107.71C198.514 107.343 199.162 107.159 199.897 107.159C200.465 107.159 200.916 107.254 201.249 107.443C201.586 107.629 201.844 107.841 202.022 108.08C202.204 108.314 202.344 108.508 202.442 108.659H202.579V107.273H203.874V116.25C203.874 117 203.704 117.61 203.363 118.08C203.026 118.553 202.571 118.9 201.999 119.119C201.431 119.343 200.799 119.455 200.102 119.455ZM200.056 114.659C200.594 114.659 201.049 114.536 201.42 114.29C201.791 114.044 202.073 113.689 202.266 113.227C202.46 112.765 202.556 112.212 202.556 111.568C202.556 110.939 202.461 110.384 202.272 109.903C202.083 109.422 201.802 109.045 201.431 108.773C201.06 108.5 200.602 108.364 200.056 108.364C199.488 108.364 199.014 108.508 198.636 108.795C198.261 109.083 197.978 109.47 197.789 109.955C197.603 110.439 197.511 110.977 197.511 111.568C197.511 112.174 197.605 112.71 197.795 113.176C197.988 113.638 198.272 114.002 198.647 114.267C199.026 114.528 199.496 114.659 200.056 114.659ZM206.329 116V107.273H207.624V108.591H207.715C207.874 108.159 208.162 107.809 208.579 107.54C208.996 107.271 209.465 107.136 209.988 107.136C210.086 107.136 210.21 107.138 210.357 107.142C210.505 107.146 210.617 107.152 210.692 107.159V108.523C210.647 108.511 210.543 108.494 210.38 108.472C210.221 108.445 210.052 108.432 209.874 108.432C209.45 108.432 209.071 108.521 208.738 108.699C208.408 108.873 208.147 109.116 207.954 109.426C207.764 109.733 207.67 110.083 207.67 110.477V116H206.329ZM214.85 116.205C214.297 116.205 213.795 116.1 213.344 115.892C212.894 115.68 212.536 115.375 212.271 114.977C212.005 114.576 211.873 114.091 211.873 113.523C211.873 113.023 211.971 112.617 212.168 112.307C212.365 111.992 212.629 111.746 212.958 111.568C213.288 111.39 213.651 111.258 214.049 111.17C214.451 111.08 214.854 111.008 215.259 110.955C215.79 110.886 216.219 110.835 216.549 110.801C216.882 110.763 217.125 110.701 217.276 110.614C217.432 110.527 217.509 110.375 217.509 110.159V110.114C217.509 109.553 217.356 109.117 217.049 108.807C216.746 108.496 216.286 108.341 215.668 108.341C215.028 108.341 214.526 108.481 214.163 108.761C213.799 109.042 213.543 109.341 213.396 109.659L212.123 109.205C212.35 108.674 212.653 108.261 213.032 107.966C213.415 107.667 213.831 107.458 214.282 107.341C214.737 107.22 215.183 107.159 215.623 107.159C215.903 107.159 216.225 107.193 216.589 107.261C216.956 107.326 217.31 107.46 217.651 107.665C217.996 107.869 218.282 108.178 218.509 108.591C218.737 109.004 218.85 109.557 218.85 110.25V116H217.509V114.818H217.441C217.35 115.008 217.199 115.21 216.987 115.426C216.774 115.642 216.492 115.826 216.14 115.977C215.788 116.129 215.358 116.205 214.85 116.205ZM215.055 115C215.585 115 216.032 114.896 216.396 114.688C216.763 114.479 217.04 114.21 217.225 113.881C217.415 113.551 217.509 113.205 217.509 112.841V111.614C217.452 111.682 217.327 111.744 217.134 111.801C216.945 111.854 216.725 111.902 216.475 111.943C216.229 111.981 215.988 112.015 215.754 112.045C215.522 112.072 215.335 112.095 215.191 112.114C214.843 112.159 214.517 112.233 214.214 112.335C213.915 112.434 213.672 112.583 213.487 112.784C213.305 112.981 213.214 113.25 213.214 113.591C213.214 114.057 213.386 114.409 213.731 114.648C214.079 114.883 214.521 115 215.055 115ZM225.184 107.273V108.409H220.479V107.273H225.184ZM221.888 116V106.068C221.888 105.568 222.006 105.152 222.241 104.818C222.476 104.485 222.781 104.235 223.156 104.068C223.531 103.902 223.926 103.818 224.343 103.818C224.673 103.818 224.942 103.845 225.15 103.898C225.358 103.951 225.513 104 225.616 104.045L225.229 105.205C225.161 105.182 225.067 105.153 224.945 105.119C224.828 105.085 224.673 105.068 224.479 105.068C224.036 105.068 223.716 105.18 223.519 105.403C223.326 105.627 223.229 105.955 223.229 106.386V116H221.888ZM229.381 116.205C228.828 116.205 228.326 116.1 227.876 115.892C227.425 115.68 227.067 115.375 226.802 114.977C226.537 114.576 226.404 114.091 226.404 113.523C226.404 113.023 226.503 112.617 226.7 112.307C226.897 111.992 227.16 111.746 227.489 111.568C227.819 111.39 228.183 111.258 228.58 111.17C228.982 111.08 229.385 111.008 229.79 110.955C230.321 110.886 230.751 110.835 231.08 110.801C231.414 110.763 231.656 110.701 231.808 110.614C231.963 110.527 232.04 110.375 232.04 110.159V110.114C232.04 109.553 231.887 109.117 231.58 108.807C231.277 108.496 230.817 108.341 230.2 108.341C229.559 108.341 229.058 108.481 228.694 108.761C228.33 109.042 228.075 109.341 227.927 109.659L226.654 109.205C226.881 108.674 227.184 108.261 227.563 107.966C227.946 107.667 228.362 107.458 228.813 107.341C229.268 107.22 229.715 107.159 230.154 107.159C230.434 107.159 230.756 107.193 231.12 107.261C231.487 107.326 231.842 107.46 232.183 107.665C232.527 107.869 232.813 108.178 233.04 108.591C233.268 109.004 233.381 109.557 233.381 110.25V116H232.04V114.818H231.972C231.881 115.008 231.73 115.21 231.518 115.426C231.306 115.642 231.023 115.826 230.671 115.977C230.319 116.129 229.889 116.205 229.381 116.205ZM229.586 115C230.116 115 230.563 114.896 230.927 114.688C231.294 114.479 231.571 114.21 231.756 113.881C231.946 113.551 232.04 113.205 232.04 112.841V111.614C231.984 111.682 231.859 111.744 231.665 111.801C231.476 111.854 231.256 111.902 231.006 111.943C230.76 111.981 230.52 112.015 230.285 112.045C230.054 112.072 229.866 112.095 229.722 112.114C229.374 112.159 229.048 112.233 228.745 112.335C228.446 112.434 228.203 112.583 228.018 112.784C227.836 112.981 227.745 113.25 227.745 113.591C227.745 114.057 227.917 114.409 228.262 114.648C228.611 114.883 229.052 115 229.586 115ZM235.829 116V107.273H237.124V108.591H237.215C237.374 108.159 237.662 107.809 238.079 107.54C238.496 107.271 238.965 107.136 239.488 107.136C239.586 107.136 239.71 107.138 239.857 107.142C240.005 107.146 240.117 107.152 240.192 107.159V108.523C240.147 108.511 240.043 108.494 239.88 108.472C239.721 108.445 239.552 108.432 239.374 108.432C238.95 108.432 238.571 108.521 238.238 108.699C237.908 108.873 237.647 109.116 237.454 109.426C237.264 109.733 237.17 110.083 237.17 110.477V116H235.829ZM241.759 116.091C241.479 116.091 241.238 115.991 241.038 115.79C240.837 115.589 240.737 115.348 240.737 115.068C240.737 114.788 240.837 114.547 241.038 114.347C241.238 114.146 241.479 114.045 241.759 114.045C242.04 114.045 242.28 114.146 242.481 114.347C242.682 114.547 242.782 114.788 242.782 115.068C242.782 115.254 242.735 115.424 242.64 115.58C242.549 115.735 242.426 115.86 242.271 115.955C242.119 116.045 241.949 116.091 241.759 116.091Z" fill="#495057"/>
</svg>
